<svg width="75" height="21" viewBox="0 0 75 21" fill="none" xmlns="http://www.w3.org/2000/svg">
<mask id="path-1-outside-1_22_20" maskUnits="userSpaceOnUse" x="0" y="0" width="75" height="21" fill="black">
<rect fill="white" width="75" height="21"/>
<path d="M5.87607 19H1.92152L10.8448 1.54545H15.6005L18.7198 19H14.7653L12.6431 5.53409H12.5067L5.87607 19ZM6.77947 12.1392H16.1204L15.6261 15.0199H6.28516L6.77947 12.1392ZM27.2809 1.54545L24.3832 19H20.7525L23.6502 1.54545H27.2809ZM36.4364 5.90909L35.9847 8.63636H28.0927L28.5529 5.90909H36.4364ZM30.854 2.77273H34.4847L32.4563 14.9773C32.3995 15.3125 32.408 15.5739 32.4819 15.7614C32.5558 15.9432 32.6779 16.071 32.8484 16.1449C33.0245 16.2187 33.2347 16.2557 33.479 16.2557C33.6495 16.2557 33.8228 16.2415 33.9989 16.2131C34.1751 16.179 34.3086 16.1534 34.3995 16.1364L34.5359 18.8381C34.3313 18.9006 34.0558 18.9687 33.7092 19.0426C33.3683 19.1165 32.9648 19.1619 32.4989 19.179C31.6126 19.2131 30.8626 19.0966 30.2489 18.8295C29.6353 18.5568 29.195 18.1392 28.9279 17.5767C28.6609 17.0142 28.604 16.3068 28.7575 15.4545L30.854 2.77273ZM45.9435 13.4261L47.1964 5.90909H50.8271L48.6452 19H45.1594L45.5515 16.6222H45.4151C45.0117 17.3892 44.4237 18.0057 43.6509 18.4716C42.8782 18.9375 42.0004 19.1705 41.0174 19.1705C40.1424 19.1705 39.4038 18.9716 38.8015 18.5739C38.2049 18.1761 37.7816 17.6108 37.5316 16.8778C37.2816 16.1449 37.239 15.267 37.4038 14.2443L38.8015 5.90909H42.4322L41.1538 13.5966C41.0344 14.3693 41.1424 14.9801 41.4776 15.429C41.8129 15.8778 42.3242 16.1023 43.0117 16.1023C43.4492 16.1023 43.8725 16.0028 44.2816 15.804C44.6964 15.5994 45.0543 15.2983 45.3555 14.9006C45.6566 14.5028 45.8526 14.0114 45.9435 13.4261ZM51.5494 19L53.7312 5.90909H57.2511L56.8675 8.19318H57.0039C57.3789 7.38068 57.8817 6.76705 58.5124 6.35227C59.1488 5.93182 59.8335 5.72159 60.5664 5.72159C60.7482 5.72159 60.9386 5.73295 61.1374 5.75568C61.342 5.77273 61.5238 5.80114 61.6829 5.84091L61.1374 9.07102C60.9783 9.0142 60.7511 8.96875 60.4556 8.93466C60.1658 8.89489 59.8903 8.875 59.6289 8.875C59.1005 8.875 58.609 8.99148 58.1545 9.22443C57.6999 9.4517 57.3164 9.76989 57.0039 10.179C56.6971 10.5881 56.4954 11.0597 56.3988 11.5938L55.18 19H51.5494ZM64.6935 19.2472C63.864 19.2472 63.1452 19.1023 62.5373 18.8125C61.935 18.517 61.4918 18.0795 61.2077 17.5C60.9237 16.9205 60.8526 16.2017 60.9947 15.3438C61.1197 14.6165 61.3555 14.0085 61.7021 13.5199C62.0543 13.0256 62.4833 12.6278 62.989 12.3267C63.4947 12.0256 64.0543 11.7955 64.668 11.6364C65.2873 11.4773 65.9265 11.3693 66.5856 11.3125C67.3469 11.233 67.9663 11.1562 68.4435 11.0824C68.9265 11.0085 69.2873 10.9034 69.5259 10.767C69.7646 10.625 69.9094 10.4148 69.9606 10.1364V10.0852C70.0458 9.55114 69.9464 9.13636 69.6623 8.84091C69.3839 8.53977 68.9379 8.3892 68.3242 8.3892C67.6765 8.3892 67.1254 8.53125 66.6708 8.81534C66.2219 9.09943 65.9009 9.46023 65.7077 9.89773L62.4009 9.625C62.6964 8.82955 63.1424 8.14205 63.739 7.5625C64.3413 6.97727 65.0657 6.52841 65.9123 6.21591C66.7589 5.89773 67.7077 5.73864 68.7589 5.73864C69.4862 5.73864 70.1651 5.82386 70.7958 5.99432C71.4322 6.16477 71.9805 6.42898 72.4407 6.78693C72.9066 7.14489 73.2418 7.60511 73.4464 8.16761C73.6566 8.72443 73.6992 9.39205 73.5742 10.1705L72.0998 19H68.6566L68.9634 17.1847H68.8612C68.5827 17.5938 68.2418 17.9545 67.8384 18.267C67.435 18.5739 66.9719 18.8153 66.4492 18.9915C65.9265 19.1619 65.3413 19.2472 64.6935 19.2472ZM66.1509 16.7415C66.6793 16.7415 67.1651 16.6364 67.6083 16.4261C68.0572 16.2102 68.4265 15.9205 68.7163 15.5568C69.0117 15.1932 69.1992 14.7812 69.2788 14.321L69.5004 12.9318C69.3867 13.0057 69.2219 13.071 69.006 13.1278C68.7958 13.1847 68.5657 13.2386 68.3157 13.2898C68.0714 13.3352 67.8242 13.3778 67.5742 13.4176C67.3242 13.4517 67.0998 13.4858 66.9009 13.5199C66.4634 13.5824 66.0714 13.6818 65.7248 13.8182C65.3782 13.9545 65.0969 14.1392 64.881 14.3722C64.6651 14.5994 64.5316 14.8835 64.4805 15.2244C64.4009 15.7188 64.5174 16.0966 64.8299 16.358C65.1481 16.6136 65.5884 16.7415 66.1509 16.7415Z"/>
</mask>
<path d="M5.87607 19H1.92152L10.8448 1.54545H15.6005L18.7198 19H14.7653L12.6431 5.53409H12.5067L5.87607 19ZM6.77947 12.1392H16.1204L15.6261 15.0199H6.28516L6.77947 12.1392ZM27.2809 1.54545L24.3832 19H20.7525L23.6502 1.54545H27.2809ZM36.4364 5.90909L35.9847 8.63636H28.0927L28.5529 5.90909H36.4364ZM30.854 2.77273H34.4847L32.4563 14.9773C32.3995 15.3125 32.408 15.5739 32.4819 15.7614C32.5558 15.9432 32.6779 16.071 32.8484 16.1449C33.0245 16.2187 33.2347 16.2557 33.479 16.2557C33.6495 16.2557 33.8228 16.2415 33.9989 16.2131C34.1751 16.179 34.3086 16.1534 34.3995 16.1364L34.5359 18.8381C34.3313 18.9006 34.0558 18.9687 33.7092 19.0426C33.3683 19.1165 32.9648 19.1619 32.4989 19.179C31.6126 19.2131 30.8626 19.0966 30.2489 18.8295C29.6353 18.5568 29.195 18.1392 28.9279 17.5767C28.6609 17.0142 28.604 16.3068 28.7575 15.4545L30.854 2.77273ZM45.9435 13.4261L47.1964 5.90909H50.8271L48.6452 19H45.1594L45.5515 16.6222H45.4151C45.0117 17.3892 44.4237 18.0057 43.6509 18.4716C42.8782 18.9375 42.0004 19.1705 41.0174 19.1705C40.1424 19.1705 39.4038 18.9716 38.8015 18.5739C38.2049 18.1761 37.7816 17.6108 37.5316 16.8778C37.2816 16.1449 37.239 15.267 37.4038 14.2443L38.8015 5.90909H42.4322L41.1538 13.5966C41.0344 14.3693 41.1424 14.9801 41.4776 15.429C41.8129 15.8778 42.3242 16.1023 43.0117 16.1023C43.4492 16.1023 43.8725 16.0028 44.2816 15.804C44.6964 15.5994 45.0543 15.2983 45.3555 14.9006C45.6566 14.5028 45.8526 14.0114 45.9435 13.4261ZM51.5494 19L53.7312 5.90909H57.2511L56.8675 8.19318H57.0039C57.3789 7.38068 57.8817 6.76705 58.5124 6.35227C59.1488 5.93182 59.8335 5.72159 60.5664 5.72159C60.7482 5.72159 60.9386 5.73295 61.1374 5.75568C61.342 5.77273 61.5238 5.80114 61.6829 5.84091L61.1374 9.07102C60.9783 9.0142 60.7511 8.96875 60.4556 8.93466C60.1658 8.89489 59.8903 8.875 59.6289 8.875C59.1005 8.875 58.609 8.99148 58.1545 9.22443C57.6999 9.4517 57.3164 9.76989 57.0039 10.179C56.6971 10.5881 56.4954 11.0597 56.3988 11.5938L55.18 19H51.5494ZM64.6935 19.2472C63.864 19.2472 63.1452 19.1023 62.5373 18.8125C61.935 18.517 61.4918 18.0795 61.2077 17.5C60.9237 16.9205 60.8526 16.2017 60.9947 15.3438C61.1197 14.6165 61.3555 14.0085 61.7021 13.5199C62.0543 13.0256 62.4833 12.6278 62.989 12.3267C63.4947 12.0256 64.0543 11.7955 64.668 11.6364C65.2873 11.4773 65.9265 11.3693 66.5856 11.3125C67.3469 11.233 67.9663 11.1562 68.4435 11.0824C68.9265 11.0085 69.2873 10.9034 69.5259 10.767C69.7646 10.625 69.9094 10.4148 69.9606 10.1364V10.0852C70.0458 9.55114 69.9464 9.13636 69.6623 8.84091C69.3839 8.53977 68.9379 8.3892 68.3242 8.3892C67.6765 8.3892 67.1254 8.53125 66.6708 8.81534C66.2219 9.09943 65.9009 9.46023 65.7077 9.89773L62.4009 9.625C62.6964 8.82955 63.1424 8.14205 63.739 7.5625C64.3413 6.97727 65.0657 6.52841 65.9123 6.21591C66.7589 5.89773 67.7077 5.73864 68.7589 5.73864C69.4862 5.73864 70.1651 5.82386 70.7958 5.99432C71.4322 6.16477 71.9805 6.42898 72.4407 6.78693C72.9066 7.14489 73.2418 7.60511 73.4464 8.16761C73.6566 8.72443 73.6992 9.39205 73.5742 10.1705L72.0998 19H68.6566L68.9634 17.1847H68.8612C68.5827 17.5938 68.2418 17.9545 67.8384 18.267C67.435 18.5739 66.9719 18.8153 66.4492 18.9915C65.9265 19.1619 65.3413 19.2472 64.6935 19.2472ZM66.1509 16.7415C66.6793 16.7415 67.1651 16.6364 67.6083 16.4261C68.0572 16.2102 68.4265 15.9205 68.7163 15.5568C69.0117 15.1932 69.1992 14.7812 69.2788 14.321L69.5004 12.9318C69.3867 13.0057 69.2219 13.071 69.006 13.1278C68.7958 13.1847 68.5657 13.2386 68.3157 13.2898C68.0714 13.3352 67.8242 13.3778 67.5742 13.4176C67.3242 13.4517 67.0998 13.4858 66.9009 13.5199C66.4634 13.5824 66.0714 13.6818 65.7248 13.8182C65.3782 13.9545 65.0969 14.1392 64.881 14.3722C64.6651 14.5994 64.5316 14.8835 64.4805 15.2244C64.4009 15.7188 64.5174 16.0966 64.8299 16.358C65.1481 16.6136 65.5884 16.7415 66.1509 16.7415Z" fill="#090808" fill-opacity="0.46"/>
<path d="M5.87607 19V20H6.49832L6.7732 19.4418L5.87607 19ZM1.92152 19L1.03113 18.5448L0.287188 20H1.92152V19ZM10.8448 1.54545V0.545454H10.2329L9.95442 1.09026L10.8448 1.54545ZM15.6005 1.54545L16.5849 1.36953L16.4376 0.545454H15.6005V1.54545ZM18.7198 19V20H19.9144L19.7042 18.8241L18.7198 19ZM14.7653 19L13.7775 19.1557L13.9105 20H14.7653V19ZM12.6431 5.53409L13.6309 5.37842L13.4979 4.53409H12.6431V5.53409ZM12.5067 5.53409V4.53409H11.8845L11.6096 5.09234L12.5067 5.53409ZM6.77947 12.1392V11.1392H5.93646L5.79388 11.9701L6.77947 12.1392ZM16.1204 12.1392L17.106 12.3083L17.3066 11.1392H16.1204V12.1392ZM15.6261 15.0199V16.0199H16.4691L16.6117 15.189L15.6261 15.0199ZM6.28516 15.0199L5.29956 14.8508L5.09894 16.0199H6.28516V15.0199ZM5.87607 18H1.92152V20H5.87607V18ZM2.81191 19.4552L11.7352 2.00065L9.95442 1.09026L1.03113 18.5448L2.81191 19.4552ZM10.8448 2.54545H15.6005V0.545454H10.8448V2.54545ZM14.6161 1.72138L17.7354 19.1759L19.7042 18.8241L16.5849 1.36953L14.6161 1.72138ZM18.7198 18H14.7653V20H18.7198V18ZM15.7531 18.8443L13.6309 5.37842L11.6553 5.68976L13.7775 19.1557L15.7531 18.8443ZM12.6431 4.53409H12.5067V6.53409H12.6431V4.53409ZM11.6096 5.09234L4.97893 18.5582L6.7732 19.4418L13.4039 5.97585L11.6096 5.09234ZM6.77947 13.1392H16.1204V11.1392H6.77947V13.1392ZM15.1348 11.9701L14.6405 14.8508L16.6117 15.189L17.106 12.3083L15.1348 11.9701ZM15.6261 14.0199H6.28516V16.0199H15.6261V14.0199ZM7.27075 15.189L7.76507 12.3083L5.79388 11.9701L5.29956 14.8508L7.27075 15.189ZM27.2809 1.54545L28.2674 1.70923L28.4606 0.545454H27.2809V1.54545ZM24.3832 19V20H25.2308L25.3697 19.1638L24.3832 19ZM20.7525 19L19.766 18.8362L19.5728 20H20.7525V19ZM23.6502 1.54545V0.545454H22.8025L22.6637 1.38168L23.6502 1.54545ZM26.2944 1.38168L23.3967 18.8362L25.3697 19.1638L28.2674 1.70923L26.2944 1.38168ZM24.3832 18H20.7525V20H24.3832V18ZM21.739 19.1638L24.6367 1.70923L22.6637 1.38168L19.766 18.8362L21.739 19.1638ZM23.6502 2.54545H27.2809V0.545454H23.6502V2.54545ZM36.4364 5.90909L37.423 6.07249L37.6157 4.90909H36.4364V5.90909ZM35.9847 8.63636V9.63636H36.8327L36.9713 8.79976L35.9847 8.63636ZM28.0927 8.63636L27.1066 8.46997L26.9098 9.63636H28.0927V8.63636ZM28.5529 5.90909V4.90909H27.7075L27.5669 5.74269L28.5529 5.90909ZM30.854 2.77273V1.77273H30.0058L29.8674 2.60962L30.854 2.77273ZM34.4847 2.77273L35.4712 2.93668L35.6646 1.77273H34.4847V2.77273ZM32.4563 14.9773L33.4423 15.1444L33.4428 15.1412L32.4563 14.9773ZM32.4819 15.7614L31.5514 16.1279L31.5554 16.1377L32.4819 15.7614ZM32.8484 16.1449L32.4507 17.0625L32.4616 17.0671L32.8484 16.1449ZM33.9989 16.2131L34.1582 17.2003L34.1736 17.1978L34.189 17.1948L33.9989 16.2131ZM34.3995 16.1364L35.3982 16.086L35.3405 14.9425L34.2152 15.1535L34.3995 16.1364ZM34.5359 18.8381L34.8281 19.7944L35.5739 19.5665L35.5346 18.7877L34.5359 18.8381ZM33.7092 19.0426L33.5007 18.0646L33.4974 18.0653L33.7092 19.0426ZM32.4989 19.179L32.4624 18.1796L32.4605 18.1797L32.4989 19.179ZM30.2489 18.8295L29.8428 19.7434L29.8499 19.7465L30.2489 18.8295ZM28.9279 17.5767L29.8313 17.1478L28.9279 17.5767ZM28.7575 15.4545L29.7416 15.6317L29.7429 15.6247L29.7441 15.6177L28.7575 15.4545ZM35.4499 5.74569L34.9982 8.47296L36.9713 8.79976L37.423 6.07249L35.4499 5.74569ZM35.9847 7.63636H28.0927V9.63636H35.9847V7.63636ZM29.0787 8.80276L29.539 6.07549L27.5669 5.74269L27.1066 8.46997L29.0787 8.80276ZM28.5529 6.90909H36.4364V4.90909H28.5529V6.90909ZM30.854 3.77273H34.4847V1.77273H30.854V3.77273ZM33.4983 2.60877L31.4699 14.8133L33.4428 15.1412L35.4712 2.93668L33.4983 2.60877ZM31.4704 14.8102C31.4016 15.2157 31.3794 15.6911 31.5515 16.1279L33.4123 15.3948C33.4277 15.434 33.4212 15.4406 33.4196 15.3921C33.418 15.3447 33.4219 15.2645 33.4423 15.1444L31.4704 14.8102ZM31.5554 16.1377C31.7217 16.5471 32.0253 16.8781 32.4508 17.0624L33.246 15.2273C33.2769 15.2408 33.3161 15.2653 33.3519 15.3027C33.3869 15.3394 33.4031 15.372 33.4084 15.385L31.5554 16.1377ZM32.4616 17.0671C32.7892 17.2045 33.1375 17.2557 33.479 17.2557V15.2557C33.332 15.2557 33.2598 15.233 33.2351 15.2227L32.4616 17.0671ZM33.479 17.2557C33.7053 17.2557 33.9318 17.2368 34.1582 17.2003L33.8397 15.2258C33.7138 15.2461 33.5938 15.2557 33.479 15.2557V17.2557ZM34.189 17.1948C34.3646 17.1609 34.4958 17.1357 34.5838 17.1192L34.2152 15.1535C34.1214 15.1711 33.9855 15.1971 33.8089 15.2313L34.189 17.1948ZM33.4008 16.1868L33.5371 18.8885L35.5346 18.7877L35.3982 16.086L33.4008 16.1868ZM34.2436 17.8817C34.0787 17.9321 33.8348 17.9934 33.5007 18.0646L33.9176 20.0207C34.2767 19.9441 34.584 19.869 34.8281 19.7944L34.2436 17.8817ZM33.4974 18.0653C33.2296 18.1233 32.8877 18.1641 32.4624 18.1796L32.5355 20.1783C33.042 20.1598 33.5069 20.1096 33.9209 20.0199L33.4974 18.0653ZM32.4605 18.1797C31.6776 18.2098 31.0866 18.1035 30.648 17.9126L29.8499 19.7465C30.6386 20.0897 31.5475 20.2163 32.5374 20.1782L32.4605 18.1797ZM30.6551 17.9157C30.2413 17.7318 29.9875 17.4769 29.8313 17.1478L28.0245 18.0056C28.4024 18.8015 29.0293 19.3818 29.8428 19.7434L30.6551 17.9157ZM29.8313 17.1478C29.6827 16.8348 29.6112 16.3566 29.7416 15.6317L27.7733 15.2774C27.5969 16.257 27.6391 17.1936 28.0245 18.0056L29.8313 17.1478ZM29.7441 15.6177L31.8407 2.93584L29.8674 2.60962L27.7708 15.2914L29.7441 15.6177ZM45.9435 13.4261L44.9571 13.2617L44.9554 13.2726L45.9435 13.4261ZM47.1964 5.90909V4.90909H46.3493L46.21 5.74469L47.1964 5.90909ZM50.8271 5.90909L51.8135 6.07349L52.0075 4.90909H50.8271V5.90909ZM48.6452 19V20H49.4924L49.6316 19.1644L48.6452 19ZM45.1594 19L44.1728 18.8373L43.9811 20H45.1594V19ZM45.5515 16.6222L46.5382 16.7848L46.7299 15.6222H45.5515V16.6222ZM45.4151 16.6222V15.6222H44.8112L44.5301 16.1567L45.4151 16.6222ZM43.6509 18.4716L44.1673 19.328L43.6509 18.4716ZM38.8015 18.5739L38.2468 19.4059L38.2504 19.4083L38.8015 18.5739ZM37.5316 16.8778L36.5851 17.2007L37.5316 16.8778ZM37.4038 14.2443L36.4175 14.0789L36.4165 14.0853L37.4038 14.2443ZM38.8015 5.90909V4.90909H37.9552L37.8153 5.74371L38.8015 5.90909ZM42.4322 5.90909L43.4186 6.07313L43.6122 4.90909H42.4322V5.90909ZM41.1538 13.5966L40.1672 13.4325L40.1655 13.444L41.1538 13.5966ZM41.4776 15.429L42.2788 14.8306L41.4776 15.429ZM44.2816 15.804L44.7188 16.7034L44.7239 16.7008L44.2816 15.804ZM45.3555 14.9006L44.5582 14.2969L44.5582 14.2969L45.3555 14.9006ZM46.9299 13.5905L48.1828 6.07349L46.21 5.74469L44.9571 13.2617L46.9299 13.5905ZM47.1964 6.90909H50.8271V4.90909H47.1964V6.90909ZM49.8407 5.74469L47.6588 18.8356L49.6316 19.1644L51.8135 6.07349L49.8407 5.74469ZM48.6452 18H45.1594V20H48.6452V18ZM46.1461 19.1627L46.5382 16.7848L44.5648 16.4595L44.1728 18.8373L46.1461 19.1627ZM45.5515 15.6222H45.4151V17.6222H45.5515V15.6222ZM44.5301 16.1567C44.2152 16.7554 43.7578 17.2395 43.1346 17.6152L44.1673 19.328C45.0895 18.7719 45.8083 18.023 46.3002 17.0876L44.5301 16.1567ZM43.1346 17.6152C42.5315 17.9788 41.8352 18.1705 41.0174 18.1705V20.1705C42.1655 20.1705 43.2249 19.8962 44.1673 19.328L43.1346 17.6152ZM41.0174 18.1705C40.2963 18.1705 39.7594 18.0081 39.3526 17.7394L38.2504 19.4083C39.0481 19.9351 39.9885 20.1705 41.0174 20.1705V18.1705ZM39.3562 17.7418C38.9576 17.4761 38.6631 17.0975 38.4781 16.555L36.5851 17.2007C36.9001 18.1241 37.4522 18.8762 38.2468 19.4059L39.3562 17.7418ZM38.4781 16.555C38.2957 16.0203 38.2439 15.3169 38.391 14.4034L36.4165 14.0853C36.2341 15.2172 36.2675 16.2694 36.5851 17.2007L38.4781 16.555ZM38.39 14.4097L39.7877 6.07447L37.8153 5.74371L36.4175 14.0789L38.39 14.4097ZM38.8015 6.90909H42.4322V4.90909H38.8015V6.90909ZM41.4457 5.74505L40.1673 13.4325L42.1402 13.7606L43.4186 6.07313L41.4457 5.74505ZM40.1655 13.444C40.0217 14.375 40.1257 15.2899 40.6764 16.0274L42.2788 14.8306C42.1591 14.6703 42.0472 14.3636 42.1421 13.7492L40.1655 13.444ZM40.6764 16.0274C41.2437 16.7869 42.0888 17.1023 43.0117 17.1023V15.1023C42.5596 15.1023 42.382 14.9688 42.2788 14.8306L40.6764 16.0274ZM43.0117 17.1023C43.6068 17.1023 44.179 16.9657 44.7188 16.7033L43.8444 14.9046C43.566 15.04 43.2917 15.1023 43.0117 15.1023V17.1023ZM44.7239 16.7008C45.289 16.4222 45.7652 16.016 46.1527 15.5042L44.5582 14.2969C44.3434 14.5806 44.1038 14.7767 43.8393 14.9071L44.7239 16.7008ZM46.1527 15.5042C46.5709 14.9519 46.8201 14.2978 46.9317 13.5796L44.9554 13.2726C44.8851 13.7249 44.7423 14.0538 44.5582 14.2969L46.1527 15.5042ZM51.5494 19L50.563 18.8356L50.3689 20H51.5494V19ZM53.7312 5.90909V4.90909H52.8841L52.7448 5.74469L53.7312 5.90909ZM57.2511 5.90909L58.2373 6.07468L58.433 4.90909H57.2511V5.90909ZM56.8675 8.19318L55.8813 8.02759L55.6856 9.19318H56.8675V8.19318ZM57.0039 8.19318V9.19318H57.6437L57.9119 8.61224L57.0039 8.19318ZM58.5124 6.35227L59.0619 7.18778L59.0637 7.18661L58.5124 6.35227ZM61.1374 5.75568L61.0239 6.74921L61.0391 6.75095L61.0544 6.75223L61.1374 5.75568ZM61.6829 5.84091L62.6689 6.00742L62.823 5.09515L61.9254 4.87076L61.6829 5.84091ZM61.1374 9.07102L60.8011 10.0128L61.9248 10.4141L62.1235 9.23753L61.1374 9.07102ZM60.4556 8.93466L60.3196 9.92537L60.3303 9.92683L60.341 9.92807L60.4556 8.93466ZM58.1545 9.22443L58.6017 10.1189L58.6106 10.1144L58.1545 9.22443ZM57.0039 10.179L56.2092 9.57191L56.2039 9.57898L57.0039 10.179ZM56.3988 11.5938L55.4148 11.4158L55.4133 11.4236L55.4121 11.4314L56.3988 11.5938ZM55.18 19V20H56.0289L56.1668 19.1624L55.18 19ZM52.5358 19.1644L54.7176 6.07349L52.7448 5.74469L50.563 18.8356L52.5358 19.1644ZM53.7312 6.90909H57.2511V4.90909H53.7312V6.90909ZM56.2649 5.7435L55.8813 8.02759L57.8537 8.35877L58.2373 6.07468L56.2649 5.7435ZM56.8675 9.19318H57.0039V7.19318H56.8675V9.19318ZM57.9119 8.61224C58.2233 7.93749 58.6142 7.48225 59.0619 7.18778L57.963 5.51676C57.1493 6.05184 56.5345 6.82388 56.0959 7.77412L57.9119 8.61224ZM59.0637 7.18661C59.5435 6.86957 60.0377 6.72159 60.5664 6.72159V4.72159C59.6292 4.72159 58.7541 4.99406 57.9612 5.51794L59.0637 7.18661ZM60.5664 6.72159C60.7067 6.72159 60.859 6.73037 61.0239 6.74921L61.251 4.76215C61.0181 4.73554 60.7897 4.72159 60.5664 4.72159V6.72159ZM61.0544 6.75223C61.2179 6.76585 61.3447 6.78715 61.4404 6.81105L61.9254 4.87076C61.7029 4.81513 61.4661 4.7796 61.2205 4.75914L61.0544 6.75223ZM60.6968 5.6744L60.1514 8.90451L62.1235 9.23753L62.6689 6.00742L60.6968 5.6744ZM61.4738 8.12928C61.2086 8.03458 60.8935 7.97855 60.5702 7.94125L60.341 9.92807C60.6087 9.95895 60.7481 9.99383 60.8011 10.0128L61.4738 8.12928ZM60.5916 7.94395C60.262 7.89871 59.9407 7.875 59.6289 7.875V9.875C59.8398 9.875 60.0697 9.89107 60.3196 9.92537L60.5916 7.94395ZM59.6289 7.875C58.9476 7.875 58.299 8.02666 57.6984 8.3345L58.6106 10.1144C58.919 9.95629 59.2534 9.875 59.6289 9.875V7.875ZM57.7073 8.33C57.1147 8.62628 56.6129 9.04348 56.2092 9.57194L57.7986 10.786C58.0199 10.4963 58.2852 10.2771 58.6017 10.1189L57.7073 8.33ZM56.2039 9.57898C55.798 10.1201 55.5373 10.7383 55.4148 11.4158L57.3828 11.7717C57.4535 11.3811 57.5961 11.056 57.8039 10.779L56.2039 9.57898ZM55.4121 11.4314L54.1933 18.8376L56.1668 19.1624L57.3855 11.7561L55.4121 11.4314ZM55.18 18H51.5494V20H55.18V18ZM62.5373 18.8125L62.0968 19.7103L62.107 19.7152L62.5373 18.8125ZM61.2077 17.5L60.3098 17.9402L61.2077 17.5ZM60.9947 15.3438L60.0091 15.1744L60.0081 15.1804L60.9947 15.3438ZM61.7021 13.5199L60.8877 12.9395L60.8864 12.9413L61.7021 13.5199ZM62.989 12.3267L62.4773 11.4675L62.989 12.3267ZM64.668 11.6364L64.4192 10.6678L64.417 10.6684L64.668 11.6364ZM66.5856 11.3125L66.6715 12.3088L66.6805 12.308L66.6895 12.3071L66.5856 11.3125ZM68.4435 11.0824L68.2924 10.0939L68.2906 10.0942L68.4435 11.0824ZM69.5259 10.767L70.0221 11.6353L70.0298 11.6309L70.0374 11.6263L69.5259 10.767ZM69.9606 10.1364L70.9441 10.317L70.9606 10.2274V10.1364H69.9606ZM69.9606 10.0852L68.9731 9.92765L68.9606 10.0059V10.0852H69.9606ZM69.6623 8.84091L68.928 9.51976L68.9347 9.52696L68.9415 9.53402L69.6623 8.84091ZM66.6708 8.81534L66.1408 7.96733L66.136 7.97036L66.6708 8.81534ZM65.7077 9.89773L65.6255 10.8943L66.335 10.9529L66.6225 10.3017L65.7077 9.89773ZM62.4009 9.625L61.4635 9.27681L61.0043 10.5132L62.3187 10.6216L62.4009 9.625ZM63.739 7.5625L64.4358 8.27978L64.4359 8.27968L63.739 7.5625ZM65.9123 6.21591L66.2586 7.15405L66.2641 7.15198L65.9123 6.21591ZM70.7958 5.99432L70.5349 6.95968L70.5371 6.96027L70.7958 5.99432ZM72.4407 6.78693L71.8267 7.5763L71.8315 7.57991L72.4407 6.78693ZM73.4464 8.16761L72.5065 8.50938L72.5108 8.52083L73.4464 8.16761ZM73.5742 10.1705L74.5606 10.3352L74.5616 10.329L73.5742 10.1705ZM72.0998 19V20H72.9466L73.0861 19.1647L72.0998 19ZM68.6566 19L67.6706 18.8333L67.4734 20H68.6566V19ZM68.9634 17.1847L69.9494 17.3513L70.1466 16.1847H68.9634V17.1847ZM68.8612 17.1847V16.1847H68.3321L68.0344 16.622L68.8612 17.1847ZM67.8384 18.267L68.4438 19.063L68.4508 19.0576L67.8384 18.267ZM66.4492 18.9915L66.7593 19.9423L66.7685 19.9391L66.4492 18.9915ZM67.6083 16.4261L68.0369 17.3297L68.0418 17.3273L67.6083 16.4261ZM68.7163 15.5568L67.9401 14.9262L67.9342 14.9336L68.7163 15.5568ZM69.2788 14.321L70.2642 14.4914L70.2663 14.4785L69.2788 14.321ZM69.5004 12.9318L70.4879 13.0893L70.8424 10.8668L68.9554 12.0934L69.5004 12.9318ZM69.006 13.1278L68.7515 12.1607L68.7451 12.1625L69.006 13.1278ZM68.3157 13.2898L68.4986 14.2729L68.5074 14.2713L68.5161 14.2695L68.3157 13.2898ZM67.5742 13.4176L67.7093 14.4084L67.7204 14.4069L67.7313 14.4052L67.5742 13.4176ZM66.9009 13.5199L67.0423 14.5098L67.0561 14.5079L67.0699 14.5055L66.9009 13.5199ZM65.7248 13.8182L66.0909 14.7487L65.7248 13.8182ZM64.881 14.3722L65.6061 15.061L65.6145 15.0519L64.881 14.3722ZM64.4805 15.2244L65.4678 15.3833L65.4694 15.3728L64.4805 15.2244ZM64.8299 16.358L64.1883 17.125L64.1959 17.1313L64.2035 17.1375L64.8299 16.358ZM64.6935 18.2472C63.9791 18.2472 63.4137 18.1224 62.9675 17.9098L62.107 19.7152C62.8768 20.0821 63.7489 20.2472 64.6935 20.2472V18.2472ZM62.9777 17.9147C62.566 17.7127 62.2881 17.4321 62.1057 17.0598L60.3098 17.9402C60.6955 18.727 61.304 19.3213 62.0969 19.7103L62.9777 17.9147ZM62.1057 17.0598C61.9403 16.7224 61.8616 16.2298 61.9812 15.5071L60.0081 15.1804C59.8437 16.1736 59.907 17.1185 60.3098 17.9402L62.1057 17.0598ZM61.9802 15.5131C62.0856 14.8998 62.2753 14.4402 62.5177 14.0984L60.8864 12.9413C60.4356 13.5769 60.1537 14.3331 60.0091 15.1744L61.9802 15.5131ZM62.5164 14.1002C62.7908 13.7152 63.1179 13.4138 63.5006 13.1859L62.4773 11.4675C61.8487 11.8418 61.3179 12.3359 60.8877 12.9395L62.5164 14.1002ZM63.5006 13.1859C63.919 12.9368 64.3899 12.7415 64.9189 12.6044L64.417 10.6684C63.7188 10.8494 63.0703 11.1144 62.4773 11.4675L63.5006 13.1859ZM64.9168 12.6049C65.4808 12.46 66.0655 12.361 66.6715 12.3088L66.4997 10.3162C65.7875 10.3776 65.0937 10.4945 64.4192 10.6678L64.9168 12.6049ZM66.6895 12.3071C67.459 12.2267 68.0964 12.148 68.5965 12.0706L68.2906 10.0942C67.8362 10.1645 67.2349 10.2392 66.4817 10.3179L66.6895 12.3071ZM68.5947 12.0709C69.1197 11.9906 69.6242 11.8626 70.0221 11.6353L69.0298 9.8988C68.9504 9.94418 68.7333 10.0264 68.2924 10.0939L68.5947 12.0709ZM70.0374 11.6263C70.5293 11.3335 70.842 10.8729 70.9441 10.317L68.977 9.95571C68.9754 9.96462 68.9744 9.96531 68.9765 9.96006C68.9788 9.95455 68.9831 9.94565 68.9902 9.93537C68.9973 9.92505 69.0047 9.91687 69.0109 9.91125C69.0168 9.90581 69.0189 9.90508 69.0144 9.90775L70.0374 11.6263ZM70.9606 10.1364V10.0852H68.9606V10.1364H70.9606ZM70.9481 10.2428C71.0656 9.50661 70.9504 8.73774 70.3831 8.1478L68.9415 9.53402C68.9551 9.54819 68.9675 9.56496 68.9775 9.6067C68.9895 9.65681 69.0003 9.75707 68.9731 9.92765L70.9481 10.2428ZM70.3966 8.16205C69.8518 7.57281 69.0781 7.3892 68.3242 7.3892V9.3892C68.7976 9.3892 68.916 9.50674 68.928 9.51976L70.3966 8.16205ZM68.3242 7.3892C67.5284 7.3892 66.7846 7.56497 66.1408 7.96734L67.2008 9.66334C67.4661 9.49753 67.8246 9.3892 68.3242 9.3892V7.3892ZM66.136 7.97036C65.5388 8.34832 65.075 8.85503 64.793 9.49379L66.6225 10.3017C66.7268 10.0654 66.9051 9.85054 67.2056 9.66032L66.136 7.97036ZM65.7899 8.90111L62.4831 8.62838L62.3187 10.6216L65.6255 10.8943L65.7899 8.90111ZM63.3383 9.97319C63.5831 9.31421 63.948 8.75357 64.4358 8.27978L63.0422 6.84522C62.3368 7.53052 61.8096 8.34488 61.4635 9.27681L63.3383 9.97319ZM64.4359 8.27968C64.9307 7.79888 65.5331 7.42183 66.2586 7.15404L65.566 5.27778C64.5983 5.63498 63.7518 6.15566 63.0421 6.84532L64.4359 8.27968ZM66.2641 7.15198C66.9816 6.88233 67.8087 6.73864 68.7589 6.73864V4.73864C67.6068 4.73864 66.5362 4.91313 65.5605 5.27984L66.2641 7.15198ZM68.7589 6.73864C69.4079 6.73864 69.9983 6.81465 70.5349 6.95968L71.0567 5.02895C70.332 4.83308 69.5644 4.73864 68.7589 4.73864V6.73864ZM70.5371 6.96027C71.0611 7.10064 71.4848 7.31032 71.8268 7.57628L73.0546 5.99758C72.4761 5.54764 71.8032 5.2289 71.0546 5.02837L70.5371 6.96027ZM71.8315 7.57991C72.1435 7.81969 72.3658 8.12211 72.5066 8.50936L74.3862 7.82587C74.1179 7.08812 73.6697 6.47009 73.0499 5.99395L71.8315 7.57991ZM72.5108 8.52083C72.6426 8.8699 72.6929 9.35156 72.5869 10.0119L74.5616 10.329C74.7055 9.43253 74.6706 8.57896 74.3819 7.8144L72.5108 8.52083ZM72.5879 10.0057L71.1134 18.8353L73.0861 19.1647L74.5606 10.3352L72.5879 10.0057ZM72.0998 18H68.6566V20H72.0998V18ZM69.6426 19.1667L69.9494 17.3513L67.9774 17.018L67.6706 18.8333L69.6426 19.1667ZM68.9634 16.1847H68.8612V18.1847H68.9634V16.1847ZM68.0344 16.622C67.8169 16.9417 67.5491 17.2262 67.226 17.4765L68.4508 19.0576C68.9346 18.6829 69.3486 18.2458 69.6879 17.7473L68.0344 16.622ZM67.2331 17.4711C66.9234 17.7066 66.5587 17.8993 66.1299 18.0438L66.7685 19.9391C67.3851 19.7314 67.9466 19.4411 68.4438 19.063L67.2331 17.4711ZM66.1392 18.0407C65.7326 18.1733 65.2542 18.2472 64.6935 18.2472V20.2472C65.4283 20.2472 66.1204 20.1505 66.7592 19.9422L66.1392 18.0407ZM66.1509 17.7415C66.8159 17.7415 67.4496 17.6082 68.0369 17.3296L67.1797 15.5226C66.8806 15.6645 66.5427 15.7415 66.1509 15.7415V17.7415ZM68.0418 17.3273C68.6164 17.0509 69.1082 16.6696 69.4983 16.18L67.9342 14.9336C67.7448 15.1713 67.4979 15.3696 67.1748 15.525L68.0418 17.3273ZM69.4924 16.1874C69.8955 15.6913 70.1553 15.1209 70.2642 14.4913L68.2934 14.1507C68.2431 14.4416 68.1279 14.6951 67.9401 14.9262L69.4924 16.1874ZM70.2663 14.4785L70.4879 13.0893L68.5128 12.7743L68.2913 14.1635L70.2663 14.4785ZM68.9554 12.0934C68.9681 12.0851 68.9613 12.0914 68.9229 12.1066C68.8859 12.1213 68.8302 12.1401 68.7515 12.1608L69.2605 14.0949C69.5219 14.0261 69.8033 13.9276 70.0453 13.7703L68.9554 12.0934ZM68.7451 12.1625C68.558 12.2131 68.3483 12.2624 68.1153 12.3101L68.5161 14.2695C68.7831 14.2149 69.0337 14.1563 69.2669 14.0932L68.7451 12.1625ZM68.1328 12.3066C67.8972 12.3505 67.6586 12.3916 67.4171 12.43L67.7313 14.4052C67.9898 14.3641 68.2456 14.32 68.4986 14.2729L68.1328 12.3066ZM67.4391 12.4268C67.1805 12.4621 66.9444 12.4978 66.732 12.5343L67.0699 14.5055C67.2551 14.4738 67.468 14.4414 67.7093 14.4084L67.4391 12.4268ZM66.7595 12.5299C66.2589 12.6015 65.7895 12.7181 65.3587 12.8876L66.0909 14.7487C66.3532 14.6455 66.668 14.5633 67.0423 14.5098L66.7595 12.5299ZM65.3587 12.8876C64.8963 13.0695 64.4817 13.3319 64.1476 13.6924L65.6145 15.0519C65.7121 14.9465 65.8601 14.8396 66.0909 14.7487L65.3587 12.8876ZM64.156 13.6834C63.7847 14.0743 63.5699 14.5534 63.4915 15.0761L65.4694 15.3728C65.4933 15.2136 65.5455 15.1246 65.606 15.0609L64.156 13.6834ZM63.4932 15.0656C63.3726 15.8151 63.5404 16.5831 64.1883 17.125L65.4715 15.5909C65.4616 15.5827 65.4606 15.5798 65.4626 15.5828C65.4648 15.5861 65.465 15.5878 65.4638 15.584C65.4612 15.5755 65.4461 15.5181 65.4678 15.3833L63.4932 15.0656ZM64.2035 17.1375C64.756 17.5814 65.4459 17.7415 66.1509 17.7415V15.7415C65.731 15.7415 65.5402 15.6459 65.4563 15.5784L64.2035 17.1375Z" fill="#DE0D0D" mask="url(#path-1-outside-1_22_20)"/>
</svg>
