<svg width="78" height="22" viewBox="0 0 78 22" fill="none" xmlns="http://www.w3.org/2000/svg">
<mask id="path-1-outside-1_22_13" maskUnits="userSpaceOnUse" x="-0.103463" y="-0.542422" width="78.3069" height="23.1142" fill="black">
<rect fill="white" x="-0.103463" y="-0.542422" width="78.3069" height="23.1142"/>
<path d="M1.43318 19.4771L4.58044 2.06583L16.3406 2.23418L15.7857 5.26916L7.71554 5.15364L6.97427 9.30254L14.4394 9.40941L13.8845 12.4444L6.4194 12.3375L5.678 16.495L13.7823 16.611L13.2274 19.646L1.43318 19.4771ZM25.7691 11.2166L25.2592 14.0903L17.2912 13.9763L17.8012 11.1026L25.7691 11.2166ZM27.3332 19.8479L29.7022 6.78954L33.1535 6.83894L32.7455 9.143L32.8904 9.14507C33.2991 8.3838 33.8616 7.78667 34.5781 7.3537C35.3003 6.92081 36.1074 6.71075 36.9993 6.72352C37.8856 6.73621 38.6039 6.97095 39.1543 7.42773C39.7104 7.87892 40.0256 8.48577 40.0999 9.24827L40.2362 9.25023C40.6333 8.50583 41.2242 7.9148 42.009 7.47712C42.7938 7.03377 43.6663 6.81896 44.6264 6.8327C45.8365 6.85003 46.757 7.25245 47.3878 8.03997C48.0187 8.82749 48.2046 9.92685 47.9458 11.3381L46.354 20.1202L42.7237 20.0682L44.203 12.0005C44.3214 11.2691 44.2213 10.7222 43.9025 10.3596C43.5839 9.9914 43.1349 9.80314 42.5554 9.79484C41.8964 9.78541 41.3451 9.98776 40.9016 10.4019C40.4582 10.8104 40.1805 11.3548 40.0685 12.035L38.5991 20.0091L35.0796 19.9588L36.577 11.8146C36.6828 11.1683 36.5851 10.6555 36.2836 10.2761C35.988 9.89119 35.5391 9.6944 34.9368 9.68578C34.5392 9.68009 34.1599 9.77694 33.799 9.97634C33.444 10.1701 33.1417 10.4471 32.8922 10.8072C32.6428 11.1616 32.4777 11.5798 32.3969 12.0616L30.955 19.8997L27.3332 19.8479ZM52.891 20.4609C52.0615 20.449 51.3449 20.2939 50.7412 19.9954C50.1432 19.6914 49.7063 19.2476 49.4306 18.664C49.1548 18.0805 49.0941 17.3608 49.2484 16.505C49.3838 15.7796 49.6282 15.175 49.9818 14.6914C50.3411 14.2022 50.7757 13.8106 51.2857 13.5168C51.7956 13.2229 52.3585 13.0008 52.9744 12.8505C53.5959 12.7003 54.2366 12.6015 54.8964 12.5542C55.6588 12.4855 56.2792 12.4177 56.7575 12.3507C57.2414 12.2837 57.6037 12.1838 57.8443 12.0508C58.0849 11.9122 58.2328 11.7041 58.2879 11.4264L58.2886 11.3753C58.3815 10.8425 58.288 10.4263 58.0082 10.1269C57.7341 9.82176 57.2903 9.66483 56.6767 9.65604C56.0291 9.64677 55.4759 9.78091 55.0174 10.0585C54.5645 10.3361 54.2383 10.6923 54.0389 11.127L50.7363 10.8069C51.0431 10.0158 51.499 9.33474 52.1038 8.76379C52.7144 8.18725 53.4452 7.7488 54.2961 7.44845C55.1472 7.14242 56.0982 6.99692 57.1493 7.01197C57.8765 7.02238 58.5542 7.11732 59.1823 7.29678C59.8162 7.47633 60.3606 7.74835 60.8157 8.11286C61.2764 8.47744 61.605 8.94242 61.8015 9.50779C62.0038 10.0676 62.0368 10.7357 61.9007 11.5123L60.3 20.3198L56.8572 20.2705L57.19 18.4597L57.0877 18.4583C56.8035 18.8633 56.4574 19.2192 56.0496 19.5259C55.6418 19.8269 55.1753 20.0618 54.6501 20.2304C54.125 20.3933 53.5386 20.4702 52.891 20.4609ZM54.3841 17.9764C54.9124 17.9839 55.3997 17.8858 55.8458 17.6819C56.2977 17.4724 56.6712 17.188 56.9661 16.8285C57.2668 16.4692 57.4601 16.06 57.5463 15.6009L57.7877 14.215C57.673 14.2873 57.5073 14.3502 57.2906 14.404C57.0796 14.4578 56.8488 14.5084 56.598 14.556C56.3531 14.5979 56.1054 14.637 55.8548 14.6732C55.6044 14.7037 55.3795 14.7346 55.1801 14.7658C54.7418 14.8221 54.3483 14.9159 53.9998 15.0473C53.6513 15.1786 53.3675 15.3593 53.1482 15.5891C52.9291 15.8133 52.7915 16.0954 52.7355 16.4356C52.6489 16.9287 52.76 17.3082 53.0687 17.574C53.3832 17.8342 53.8216 17.9683 54.3841 17.9764ZM63.1165 20.3601L65.4855 7.30177L69.1158 7.35374L66.7468 20.4121L63.1165 20.3601ZM67.7 5.62875C67.1603 5.62103 66.7168 5.43568 66.3697 5.07272C66.0284 4.70416 65.8925 4.27036 65.9622 3.7713C66.032 3.26089 66.2825 2.83261 66.7136 2.48647C67.1448 2.13465 67.6303 1.96261 68.17 1.97033C68.7097 1.97806 69.1475 2.16332 69.4832 2.52612C69.819 2.88324 69.9549 3.31704 69.8908 3.82754C69.8268 4.32667 69.5791 4.75499 69.1479 5.11249C68.7223 5.46439 68.2397 5.63648 67.7 5.62875ZM76.4325 3.09439L73.2852 20.5057L69.6549 20.4537L72.8021 3.04243L76.4325 3.09439Z"/>
</mask>
<path d="M1.43318 19.4771L4.58044 2.06583L16.3406 2.23418L15.7857 5.26916L7.71554 5.15364L6.97427 9.30254L14.4394 9.40941L13.8845 12.4444L6.4194 12.3375L5.678 16.495L13.7823 16.611L13.2274 19.646L1.43318 19.4771ZM25.7691 11.2166L25.2592 14.0903L17.2912 13.9763L17.8012 11.1026L25.7691 11.2166ZM27.3332 19.8479L29.7022 6.78954L33.1535 6.83894L32.7455 9.143L32.8904 9.14507C33.2991 8.3838 33.8616 7.78667 34.5781 7.3537C35.3003 6.92081 36.1074 6.71075 36.9993 6.72352C37.8856 6.73621 38.6039 6.97095 39.1543 7.42773C39.7104 7.87892 40.0256 8.48577 40.0999 9.24827L40.2362 9.25023C40.6333 8.50583 41.2242 7.9148 42.009 7.47712C42.7938 7.03377 43.6663 6.81896 44.6264 6.8327C45.8365 6.85003 46.757 7.25245 47.3878 8.03997C48.0187 8.82749 48.2046 9.92685 47.9458 11.3381L46.354 20.1202L42.7237 20.0682L44.203 12.0005C44.3214 11.2691 44.2213 10.7222 43.9025 10.3596C43.5839 9.9914 43.1349 9.80314 42.5554 9.79484C41.8964 9.78541 41.3451 9.98776 40.9016 10.4019C40.4582 10.8104 40.1805 11.3548 40.0685 12.035L38.5991 20.0091L35.0796 19.9588L36.577 11.8146C36.6828 11.1683 36.5851 10.6555 36.2836 10.2761C35.988 9.89119 35.5391 9.6944 34.9368 9.68578C34.5392 9.68009 34.1599 9.77694 33.799 9.97634C33.444 10.1701 33.1417 10.4471 32.8922 10.8072C32.6428 11.1616 32.4777 11.5798 32.3969 12.0616L30.955 19.8997L27.3332 19.8479ZM52.891 20.4609C52.0615 20.449 51.3449 20.2939 50.7412 19.9954C50.1432 19.6914 49.7063 19.2476 49.4306 18.664C49.1548 18.0805 49.0941 17.3608 49.2484 16.505C49.3838 15.7796 49.6282 15.175 49.9818 14.6914C50.3411 14.2022 50.7757 13.8106 51.2857 13.5168C51.7956 13.2229 52.3585 13.0008 52.9744 12.8505C53.5959 12.7003 54.2366 12.6015 54.8964 12.5542C55.6588 12.4855 56.2792 12.4177 56.7575 12.3507C57.2414 12.2837 57.6037 12.1838 57.8443 12.0508C58.0849 11.9122 58.2328 11.7041 58.2879 11.4264L58.2886 11.3753C58.3815 10.8425 58.288 10.4263 58.0082 10.1269C57.7341 9.82176 57.2903 9.66483 56.6767 9.65604C56.0291 9.64677 55.4759 9.78091 55.0174 10.0585C54.5645 10.3361 54.2383 10.6923 54.0389 11.127L50.7363 10.8069C51.0431 10.0158 51.499 9.33474 52.1038 8.76379C52.7144 8.18725 53.4452 7.7488 54.2961 7.44845C55.1472 7.14242 56.0982 6.99692 57.1493 7.01197C57.8765 7.02238 58.5542 7.11732 59.1823 7.29678C59.8162 7.47633 60.3606 7.74835 60.8157 8.11286C61.2764 8.47744 61.605 8.94242 61.8015 9.50779C62.0038 10.0676 62.0368 10.7357 61.9007 11.5123L60.3 20.3198L56.8572 20.2705L57.19 18.4597L57.0877 18.4583C56.8035 18.8633 56.4574 19.2192 56.0496 19.5259C55.6418 19.8269 55.1753 20.0618 54.6501 20.2304C54.125 20.3933 53.5386 20.4702 52.891 20.4609ZM54.3841 17.9764C54.9124 17.9839 55.3997 17.8858 55.8458 17.6819C56.2977 17.4724 56.6712 17.188 56.9661 16.8285C57.2668 16.4692 57.4601 16.06 57.5463 15.6009L57.7877 14.215C57.673 14.2873 57.5073 14.3502 57.2906 14.404C57.0796 14.4578 56.8488 14.5084 56.598 14.556C56.3531 14.5979 56.1054 14.637 55.8548 14.6732C55.6044 14.7037 55.3795 14.7346 55.1801 14.7658C54.7418 14.8221 54.3483 14.9159 53.9998 15.0473C53.6513 15.1786 53.3675 15.3593 53.1482 15.5891C52.9291 15.8133 52.7915 16.0954 52.7355 16.4356C52.6489 16.9287 52.76 17.3082 53.0687 17.574C53.3832 17.8342 53.8216 17.9683 54.3841 17.9764ZM63.1165 20.3601L65.4855 7.30177L69.1158 7.35374L66.7468 20.4121L63.1165 20.3601ZM67.7 5.62875C67.1603 5.62103 66.7168 5.43568 66.3697 5.07272C66.0284 4.70416 65.8925 4.27036 65.9622 3.7713C66.032 3.26089 66.2825 2.83261 66.7136 2.48647C67.1448 2.13465 67.6303 1.96261 68.17 1.97033C68.7097 1.97806 69.1475 2.16332 69.4832 2.52612C69.819 2.88324 69.9549 3.31704 69.8908 3.82754C69.8268 4.32667 69.5791 4.75499 69.1479 5.11249C68.7223 5.46439 68.2397 5.63648 67.7 5.62875ZM76.4325 3.09439L73.2852 20.5057L69.6549 20.4537L72.8021 3.04243L76.4325 3.09439Z" fill="#090808" fill-opacity="0.46"/>
<path d="M1.43318 19.4771L0.449125 19.2992L0.239282 20.4601L1.41886 20.477L1.43318 19.4771ZM4.58044 2.06583L4.59476 1.06594L3.74717 1.0538L3.59639 1.88796L4.58044 2.06583ZM16.3406 2.23418L17.3243 2.41402L17.5369 1.2512L16.3549 1.23428L16.3406 2.23418ZM15.7857 5.26916L15.7714 6.26906L16.6173 6.28117L16.7694 5.449L15.7857 5.26916ZM7.71554 5.15364L7.72986 4.15374L6.88053 4.14158L6.73113 4.97776L7.71554 5.15364ZM6.97427 9.30254L5.98985 9.12666L5.78279 10.2856L6.95995 10.3024L6.97427 9.30254ZM14.4394 9.40941L15.4231 9.58925L15.6357 8.42643L14.4537 8.40951L14.4394 9.40941ZM13.8845 12.4444L13.8702 13.4443L14.7161 13.4564L14.8682 12.6242L13.8845 12.4444ZM6.4194 12.3375L6.43372 11.3376L5.58411 11.3255L5.43493 12.162L6.4194 12.3375ZM5.678 16.495L4.69353 16.3194L4.48692 17.478L5.66369 17.4949L5.678 16.495ZM13.7823 16.611L14.766 16.7908L14.9786 15.628L13.7966 15.6111L13.7823 16.611ZM13.2274 19.646L13.2131 20.6458L14.059 20.658L14.2111 19.8258L13.2274 19.646ZM2.41723 19.655L5.5645 2.24371L3.59639 1.88796L0.449125 19.2992L2.41723 19.655ZM4.56613 3.06573L16.3263 3.23408L16.3549 1.23428L4.59476 1.06594L4.56613 3.06573ZM15.3569 2.05434L14.802 5.08932L16.7694 5.449L17.3243 2.41402L15.3569 2.05434ZM15.8001 4.26927L7.72986 4.15374L7.70123 6.15354L15.7714 6.26906L15.8001 4.26927ZM6.73113 4.97776L5.98985 9.12666L7.95868 9.47843L8.69996 5.32952L6.73113 4.97776ZM6.95995 10.3024L14.4251 10.4093L14.4537 8.40951L6.98858 8.30265L6.95995 10.3024ZM13.4557 9.22957L12.9009 12.2645L14.8682 12.6242L15.4231 9.58925L13.4557 9.22957ZM13.8989 11.4445L6.43372 11.3376L6.40509 13.3374L13.8702 13.4443L13.8989 11.4445ZM5.43493 12.162L4.69353 16.3194L6.66247 16.6705L7.40387 12.5131L5.43493 12.162ZM5.66369 17.4949L13.768 17.6109L13.7966 15.6111L5.69232 15.4951L5.66369 17.4949ZM12.7986 16.4311L12.2437 19.4661L14.2111 19.8258L14.766 16.7908L12.7986 16.4311ZM13.2417 18.6461L1.44749 18.4772L1.41886 20.477L13.2131 20.6458L13.2417 18.6461ZM25.7691 11.2166L26.7537 11.3914L26.9592 10.2336L25.7834 10.2167L25.7691 11.2166ZM25.2592 14.0903L25.2449 15.0902L26.0952 15.1024L26.2438 14.265L25.2592 14.0903ZM17.2912 13.9763L16.3066 13.8015L16.1012 14.9593L17.2769 14.9762L17.2912 13.9763ZM17.8012 11.1026L17.8155 10.1027L16.9651 10.0905L16.8166 10.9279L17.8012 11.1026ZM24.7845 11.0419L24.2746 13.9156L26.2438 14.265L26.7537 11.3914L24.7845 11.0419ZM25.2735 13.0904L17.3055 12.9764L17.2769 14.9762L25.2449 15.0902L25.2735 13.0904ZM18.2759 14.151L18.7858 11.2773L16.8166 10.9279L16.3066 13.8015L18.2759 14.151ZM17.7869 12.1025L25.7548 12.2165L25.7834 10.2167L17.8155 10.1027L17.7869 12.1025ZM27.3332 19.8479L26.3493 19.6694L26.1386 20.8309L27.3189 20.8478L27.3332 19.8479ZM29.7022 6.78954L29.7165 5.78964L28.8695 5.77751L28.7183 6.61103L29.7022 6.78954ZM33.1535 6.83894L34.1382 7.01332L34.3432 5.85587L33.1679 5.83904L33.1535 6.83894ZM32.7455 9.143L31.7608 8.96862L31.5559 10.1261L32.7312 10.1429L32.7455 9.143ZM32.8904 9.14507L32.8761 10.145L33.4839 10.1537L33.7715 9.61805L32.8904 9.14507ZM34.5781 7.3537L34.064 6.49598L34.0609 6.49783L34.5781 7.3537ZM39.1543 7.42773L38.5155 8.19726L38.5242 8.20429L39.1543 7.42773ZM40.0999 9.24827L39.1046 9.34528L39.1914 10.2354L40.0856 10.2482L40.0999 9.24827ZM40.2362 9.25023L40.2219 10.2501L40.8316 10.2589L41.1186 9.72086L40.2362 9.25023ZM42.009 7.47712L42.4961 8.35049L42.5008 8.3478L42.009 7.47712ZM47.3878 8.03997L46.6073 8.66516L46.6073 8.66516L47.3878 8.03997ZM47.9458 11.3381L46.9622 11.1576L46.9618 11.1597L47.9458 11.3381ZM46.354 20.1202L46.3397 21.1201L47.1869 21.1322L47.338 20.2985L46.354 20.1202ZM42.7237 20.0682L41.7401 19.8878L41.5268 21.0512L42.7094 21.0681L42.7237 20.0682ZM44.203 12.0005L45.1866 12.1808L45.1884 12.1706L45.1901 12.1603L44.203 12.0005ZM43.9025 10.3596L43.1463 11.014L43.1515 11.0199L43.9025 10.3596ZM40.9016 10.4019L41.5792 11.1374L41.5842 11.1328L40.9016 10.4019ZM40.0685 12.035L41.052 12.2163L41.0537 12.2069L41.0552 12.1975L40.0685 12.035ZM38.5991 20.0091L38.5848 21.009L39.4295 21.0211L39.5826 20.1904L38.5991 20.0091ZM35.0796 19.9588L34.0961 19.7779L33.8821 20.9417L35.0653 20.9587L35.0796 19.9588ZM36.577 11.8146L37.5605 11.9954L37.5623 11.9858L37.5638 11.9762L36.577 11.8146ZM36.2836 10.2761L35.4906 10.8853L35.4956 10.8918L35.5007 10.8982L36.2836 10.2761ZM33.799 9.97634L34.2781 10.8541L34.2827 10.8516L33.799 9.97634ZM32.8922 10.8072L33.71 11.3827L33.7142 11.3767L32.8922 10.8072ZM32.3969 12.0616L33.3804 12.2425L33.3818 12.2347L33.3831 12.2269L32.3969 12.0616ZM30.955 19.8997L30.9407 20.8996L31.7856 20.9117L31.9385 20.0806L30.955 19.8997ZM28.3172 20.0264L30.6861 6.96804L28.7183 6.61103L26.3493 19.6694L28.3172 20.0264ZM29.6879 7.78943L33.1392 7.83884L33.1679 5.83904L29.7165 5.78964L29.6879 7.78943ZM32.1689 6.66457L31.7608 8.96862L33.7302 9.31737L34.1382 7.01332L32.1689 6.66457ZM32.7312 10.1429L32.8761 10.145L32.9047 8.14517L32.7598 8.1431L32.7312 10.1429ZM33.7715 9.61805C34.0982 9.0094 34.5373 8.54677 35.0953 8.20957L34.0609 6.49783C33.186 7.02658 32.4999 7.75819 32.0093 8.67209L33.7715 9.61805ZM35.0923 8.21142C35.6453 7.8799 36.2675 7.71315 36.985 7.72342L37.0137 5.72362C35.9473 5.70836 34.9553 5.96173 34.064 6.49599L35.0923 8.21142ZM36.985 7.72342C37.6991 7.73364 38.1798 7.91847 38.5156 8.19721L39.7929 6.65826C39.0281 6.02342 38.0721 5.73878 37.0137 5.72362L36.985 7.72342ZM38.5242 8.20429C38.857 8.4743 39.0542 8.8284 39.1046 9.34528L41.0952 9.15127C40.9969 8.14314 40.5637 7.28354 39.7843 6.65118L38.5242 8.20429ZM40.0856 10.2482L40.2219 10.2501L40.2505 8.25033L40.1142 8.24838L40.0856 10.2482ZM41.1186 9.72086C41.4193 9.15705 41.8675 8.70101 42.496 8.35047L41.5219 6.60377C40.5809 7.12859 39.8473 7.85462 39.3539 8.77959L41.1186 9.72086ZM42.5008 8.3478C43.1212 7.99732 43.8172 7.82122 44.6121 7.8326L44.6407 5.83281C43.5154 5.8167 42.4664 6.07021 41.5171 6.60644L42.5008 8.3478ZM44.6121 7.8326C45.5895 7.84659 46.2007 8.15755 46.6073 8.66516L48.1683 7.41477C47.3132 6.34735 46.0835 5.85346 44.6407 5.83281L44.6121 7.8326ZM46.6073 8.66516C46.9905 9.14347 47.1915 9.90743 46.9622 11.1576L48.9294 11.5185C49.2178 9.94627 49.0468 8.5115 48.1683 7.41477L46.6073 8.66516ZM46.9618 11.1597L45.37 19.9418L47.338 20.2985L48.9297 11.5164L46.9618 11.1597ZM46.3683 19.1203L42.738 19.0683L42.7094 21.0681L46.3397 21.1201L46.3683 19.1203ZM43.7073 20.2485L45.1866 12.1808L43.2194 11.8201L41.7401 19.8878L43.7073 20.2485ZM45.1901 12.1603C45.3305 11.2934 45.2558 10.3845 44.6536 9.69941L43.1515 11.0199C43.1867 11.0599 43.3123 11.2449 43.2158 11.8406L45.1901 12.1603ZM44.6588 9.70531C44.1179 9.08019 43.3751 8.80647 42.5697 8.79494L42.5411 10.7947C42.8946 10.7998 43.05 10.9026 43.1463 11.014L44.6588 9.70531ZM42.5697 8.79494C41.6768 8.78216 40.8685 9.0646 40.2191 9.67106L41.5842 11.1328C41.8217 10.9109 42.116 10.7887 42.5411 10.7947L42.5697 8.79494ZM40.2241 9.66643C39.5935 10.2474 39.2246 11.0053 39.0818 11.8726L41.0552 12.1975C41.1365 11.7042 41.323 11.3734 41.5792 11.1374L40.2241 9.66643ZM39.0851 11.8538L37.6157 19.8279L39.5826 20.1904L41.052 12.2163L39.0851 11.8538ZM38.6134 19.0092L35.0939 18.9589L35.0653 20.9587L38.5848 21.009L38.6134 19.0092ZM36.0631 20.1396L37.5605 11.9954L35.5935 11.6338L34.0961 19.7779L36.0631 20.1396ZM37.5638 11.9762C37.6985 11.1538 37.5989 10.324 37.0666 9.65405L35.5007 10.8982C35.5712 10.987 35.6671 11.1828 35.5901 11.653L37.5638 11.9762ZM37.0767 9.66703C36.5505 8.98188 35.778 8.69772 34.9512 8.68588L34.9225 10.6857C35.3001 10.6911 35.4255 10.8005 35.4906 10.8853L37.0767 9.66703ZM34.9512 8.68588C34.3729 8.67761 33.8227 8.82073 33.3154 9.10109L34.2827 10.8516C34.497 10.7332 34.7054 10.6826 34.9225 10.6857L34.9512 8.68588ZM33.32 9.09857C32.817 9.37308 32.4009 9.76036 32.0702 10.2377L33.7142 11.3767C33.8824 11.1338 34.0709 10.9672 34.2781 10.8541L33.32 9.09857ZM32.0744 10.2317C31.7284 10.7233 31.513 11.2857 31.4107 11.8963L33.3831 12.2269C33.4423 11.8738 33.5571 11.6 33.71 11.3827L32.0744 10.2317ZM31.4134 11.8807L29.9715 19.7188L31.9385 20.0806L33.3804 12.2425L31.4134 11.8807ZM30.9693 18.8998L27.3475 18.848L27.3189 20.8478L30.9407 20.8996L30.9693 18.8998ZM50.7412 19.9954L50.2879 20.8869L50.298 20.8919L50.7412 19.9954ZM49.4306 18.664L48.5264 19.0913L49.4306 18.664ZM49.2484 16.505L48.2653 16.3215L48.2642 16.3275L49.2484 16.505ZM49.9818 14.6914L49.1758 14.0995L49.1745 14.1013L49.9818 14.6914ZM51.2857 13.5168L50.7864 12.6503L51.2857 13.5168ZM52.9744 12.8505L52.7394 11.8785L52.7373 11.879L52.9744 12.8505ZM54.8964 12.5542L54.968 13.5516L54.9771 13.5509L54.9861 13.5501L54.8964 12.5542ZM56.7575 12.3507L56.6204 11.3601L56.6187 11.3603L56.7575 12.3507ZM57.8443 12.0508L58.3279 12.9261L58.3357 12.9218L58.3434 12.9174L57.8443 12.0508ZM58.2879 11.4264L59.2688 11.6212L59.2865 11.5318L59.2878 11.4408L58.2879 11.4264ZM58.2886 11.3753L57.3035 11.2036L57.2899 11.2817L57.2887 11.361L58.2886 11.3753ZM58.0082 10.1269L57.2643 10.7951L57.2708 10.8024L57.2775 10.8096L58.0082 10.1269ZM55.0174 10.0585L54.4996 9.20296L54.4947 9.20592L55.0174 10.0585ZM54.0389 11.127L53.9425 12.1223L54.651 12.191L54.9478 11.5439L54.0389 11.127ZM50.7363 10.8069L49.804 10.4454L49.3271 11.6751L50.6399 11.8023L50.7363 10.8069ZM52.1038 8.76379L52.7902 9.49097L52.7903 9.49088L52.1038 8.76379ZM54.2961 7.44845L54.629 8.39145L54.6345 8.38946L54.2961 7.44845ZM59.1823 7.29678L58.9076 8.25831L58.9098 8.25892L59.1823 7.29678ZM60.8157 8.11286L60.1905 8.89335L60.1952 8.89704L60.8157 8.11286ZM61.8015 9.50779L60.8569 9.83607L60.861 9.84758L61.8015 9.50779ZM61.9007 11.5123L62.8846 11.6911L62.8857 11.6849L61.9007 11.5123ZM60.3 20.3198L60.2857 21.3197L61.1325 21.3318L61.2839 20.4986L60.3 20.3198ZM56.8572 20.2705L55.8737 20.0898L55.6598 21.2535L56.8429 21.2704L56.8572 20.2705ZM57.19 18.4597L58.1735 18.6405L58.3873 17.4768L57.2043 17.4598L57.19 18.4597ZM57.0877 18.4583L57.102 17.4584L56.573 17.4508L56.2691 17.8839L57.0877 18.4583ZM56.0496 19.5259L56.6435 20.3305L56.6506 20.3252L56.0496 19.5259ZM54.6501 20.2304L54.9465 21.1855L54.9559 21.1825L54.6501 20.2304ZM55.8458 17.6819L56.2615 18.5915L56.2664 18.5892L55.8458 17.6819ZM56.9661 16.8285L56.1991 16.1869L56.1931 16.1942L56.9661 16.8285ZM57.5463 15.6009L58.5292 15.7853L58.5314 15.7726L57.5463 15.6009ZM57.7877 14.215L58.7729 14.3867L59.1592 12.1694L57.2548 13.3689L57.7877 14.215ZM57.2906 14.404L57.05 13.4333L57.0436 13.435L57.2906 14.404ZM56.598 14.556L56.7669 15.5416L56.7756 15.5401L56.7844 15.5385L56.598 14.556ZM55.8548 14.6732L55.9757 15.6659L55.9868 15.6645L55.9978 15.6629L55.8548 14.6732ZM55.1801 14.7658L55.3074 15.7577L55.3212 15.7559L55.335 15.7538L55.1801 14.7658ZM53.9998 15.0473L54.3526 15.983L53.9998 15.0473ZM53.1482 15.5891L53.8634 16.2882L53.8719 16.2793L53.1482 15.5891ZM52.7355 16.4356L53.7205 16.6086L53.7222 16.598L52.7355 16.4356ZM53.0687 17.574L52.4162 18.3318L52.4237 18.3382L52.4312 18.3444L53.0687 17.574ZM52.9053 19.461C52.1909 19.4508 51.6273 19.318 51.1843 19.099L50.298 20.8919C51.0625 21.2698 51.9321 21.4473 52.8767 21.4608L52.9053 19.461ZM51.1944 19.104C50.7856 18.8962 50.5118 18.6116 50.3347 18.2368L48.5264 19.0913C48.9008 19.8836 49.5008 20.4866 50.2879 20.8868L51.1944 19.104ZM50.3347 18.2368C50.1741 17.897 50.1025 17.4033 50.2325 16.6824L48.2642 16.3275C48.0856 17.3183 48.1354 18.2639 48.5264 19.0913L50.3347 18.2368ZM50.2314 16.6884C50.3456 16.0767 50.5418 15.6198 50.7891 15.2816L49.1745 14.1013C48.7147 14.7303 48.422 15.4824 48.2653 16.3215L50.2314 16.6884ZM50.7878 15.2834C51.0676 14.9023 51.399 14.6056 51.785 14.3832L50.7864 12.6503C50.1525 13.0156 49.6146 13.5021 49.1758 14.0995L50.7878 15.2834ZM51.785 14.3832C52.2069 14.1401 52.6805 13.9516 53.2114 13.822L52.7373 11.879C52.0365 12.0501 51.3844 12.3057 50.7864 12.6503L51.785 14.3832ZM53.2093 13.8226C53.7754 13.6857 54.3613 13.5951 54.968 13.5516L54.8248 11.5567C54.1118 11.6079 53.4164 11.7149 52.7394 11.8785L53.2093 13.8226ZM54.9861 13.5501C55.7566 13.4808 56.3951 13.4112 56.8962 13.341L56.6187 11.3603C56.1633 11.4242 55.561 11.4903 54.8067 11.5582L54.9861 13.5501ZM56.8945 13.3412C57.4206 13.2685 57.9268 13.1477 58.3279 12.9261L57.3606 11.1756C57.2805 11.2198 57.0623 11.299 56.6204 11.3601L56.8945 13.3412ZM58.3434 12.9174C58.8395 12.6316 59.1587 12.1755 59.2688 11.6212L57.307 11.2317C57.3053 11.2406 57.3043 11.2413 57.3065 11.2361C57.3088 11.2306 57.3132 11.2218 57.3205 11.2116C57.3277 11.2014 57.3353 11.1933 57.3415 11.1878C57.3475 11.1824 57.3497 11.1817 57.3451 11.1843L58.3434 12.9174ZM59.2878 11.4408L59.2885 11.3896L57.2887 11.361L57.288 11.4121L59.2878 11.4408ZM59.2738 11.547C59.4018 10.8126 59.2976 10.0421 58.7389 9.44413L57.2775 10.8096C57.2909 10.8239 57.3031 10.8409 57.3125 10.8828C57.3238 10.933 57.3331 11.0334 57.3035 11.2036L59.2738 11.547ZM58.7521 9.45858C58.2158 8.86159 57.4448 8.66694 56.691 8.65615L56.6624 10.6559C57.1357 10.6627 57.2524 10.7819 57.2643 10.7951L58.7521 9.45858ZM56.691 8.65615C55.8953 8.64475 55.1491 8.80985 54.4996 9.20297L55.5352 10.914C55.8028 10.752 56.1628 10.6488 56.6624 10.6559L56.691 8.65615ZM54.4947 9.20592C53.8922 9.57529 53.4212 10.0753 53.13 10.71L54.9478 11.5439C55.0555 11.3092 55.2368 11.0969 55.54 10.911L54.4947 9.20592ZM54.1354 10.1316L50.8328 9.81159L50.6399 11.8023L53.9425 12.1223L54.1354 10.1316ZM51.6687 11.1685C51.9228 10.5131 52.2958 9.95774 52.7902 9.49097L51.4173 8.03661C50.7022 8.71174 50.1634 9.51847 49.804 10.4454L51.6687 11.1685ZM52.7903 9.49088C53.292 9.01721 53.8997 8.64882 54.629 8.39143L53.9633 6.50546C52.9906 6.84877 52.1368 7.35729 51.4172 8.03671L52.7903 9.49088ZM54.6345 8.38946C55.3558 8.1301 56.1849 7.99827 57.1349 8.01187L57.1636 6.01207C56.0116 5.99558 54.9386 6.15473 53.9578 6.50744L54.6345 8.38946ZM57.1349 8.01187C57.7839 8.02115 58.3731 8.10561 58.9076 8.25831L59.457 6.33525C58.7352 6.12902 57.9691 6.0236 57.1636 6.01207L57.1349 8.01187ZM58.9098 8.25892C59.4318 8.40679 59.8524 8.62251 60.1905 8.89334L61.4409 7.33237C60.8689 6.87419 60.2006 6.54586 59.4549 6.33463L58.9098 8.25892ZM60.1952 8.89704C60.5038 9.14125 60.7217 9.44682 60.8569 9.83605L62.7461 9.17954C62.4884 8.43802 62.0491 7.81363 61.4362 7.32867L60.1952 8.89704ZM60.861 9.84758C60.9878 10.1985 61.0312 10.6808 60.9157 11.3396L62.8857 11.6849C63.0424 10.7906 63.0197 9.93662 62.742 9.168L60.861 9.84758ZM60.9168 11.3334L59.3161 20.141L61.2839 20.4986L62.8846 11.6911L60.9168 11.3334ZM60.3143 19.3199L56.8715 19.2706L56.8429 21.2704L60.2857 21.3197L60.3143 19.3199ZM57.8407 20.4513L58.1735 18.6405L56.2064 18.279L55.8737 20.0898L57.8407 20.4513ZM57.2043 17.4598L57.102 17.4584L57.0734 19.4582L57.1756 19.4596L57.2043 17.4598ZM56.2691 17.8839C56.047 18.2004 55.7752 18.4811 55.4486 18.7267L56.6506 20.3252C57.1397 19.9574 57.5599 19.5263 57.9063 19.0327L56.2691 17.8839ZM55.4557 18.7214C55.1427 18.9524 54.7753 19.1399 54.3444 19.2783L54.9559 21.1825C55.5754 20.9836 56.1409 20.7014 56.6435 20.3304L55.4557 18.7214ZM54.3538 19.2753C53.9453 19.4021 53.4659 19.469 52.9053 19.461L52.8767 21.4608C53.6114 21.4713 54.3048 21.3846 54.9465 21.1855L54.3538 19.2753ZM54.3698 18.9763C55.0347 18.9858 55.6702 18.8616 56.2614 18.5914L55.4302 16.7724C55.1291 16.9099 54.7902 16.9821 54.3984 16.9765L54.3698 18.9763ZM56.2664 18.5892C56.8449 18.321 57.3421 17.9468 57.7392 17.4629L56.1931 16.1942C56.0003 16.4291 55.7506 16.6239 55.4253 16.7746L56.2664 18.5892ZM57.7331 17.4702C58.1433 16.9798 58.4113 16.4133 58.5291 15.7853L56.5634 15.4165C56.509 15.7066 56.3902 15.9585 56.1991 16.1869L57.7331 17.4702ZM58.5314 15.7726L58.7729 14.3867L56.8025 14.0434L56.5611 15.4293L58.5314 15.7726ZM57.2548 13.3689C57.2676 13.3608 57.2608 13.367 57.2221 13.3817C57.1849 13.3958 57.1289 13.4138 57.05 13.4333L57.5313 15.3746C57.7936 15.3095 58.0763 15.215 58.3206 15.0612L57.2548 13.3689ZM57.0436 13.435C56.8557 13.4829 56.6454 13.5292 56.4117 13.5735L56.7844 15.5385C57.0521 15.4877 57.3035 15.4327 57.5377 15.373L57.0436 13.435ZM56.4292 13.5703C56.193 13.6108 55.9539 13.6485 55.7118 13.6835L55.9978 15.6629C56.2568 15.6255 56.5132 15.5851 56.7669 15.5416L56.4292 13.5703ZM55.7339 13.6805C55.4748 13.7121 55.2383 13.7445 55.0253 13.7779L55.335 15.7538C55.5206 15.7247 55.7339 15.6953 55.9757 15.6659L55.7339 13.6805ZM55.0529 13.774C54.5513 13.8383 54.0803 13.9482 53.6471 14.1115L54.3526 15.983C54.6164 15.8835 54.9323 15.8058 55.3074 15.7577L55.0529 13.774ZM53.6471 14.1115C53.1822 14.2868 52.7639 14.5432 52.4246 14.8989L53.8719 16.2793C53.971 16.1753 54.1205 16.0705 54.3526 15.983L53.6471 14.1115ZM52.4332 14.89C52.0563 15.2756 51.8347 15.7516 51.7488 16.2731L53.7222 16.598C53.7484 16.4393 53.8019 16.351 53.8633 16.2882L52.4332 14.89ZM51.7506 16.2626C51.6193 17.0103 51.7761 17.7806 52.4162 18.3318L53.7212 16.8161C53.7114 16.8078 53.7104 16.8049 53.7124 16.808C53.7146 16.8113 53.7147 16.813 53.7136 16.8091C53.7111 16.8006 53.6968 16.743 53.7204 16.6085L51.7506 16.2626ZM52.4312 18.3444C52.9772 18.7962 53.6648 18.9662 54.3698 18.9763L54.3984 16.9765C53.9785 16.9704 53.7891 16.8721 53.7062 16.8035L52.4312 18.3444ZM63.1165 20.3601L62.1325 20.1816L61.9218 21.3431L63.1022 21.36L63.1165 20.3601ZM65.4855 7.30177L65.4998 6.30187L64.6527 6.28975L64.5015 7.12327L65.4855 7.30177ZM69.1158 7.35374L70.0997 7.53224L70.3104 6.37074L69.1301 6.35384L69.1158 7.35374ZM66.7468 20.4121L66.7325 21.412L67.5795 21.4241L67.7307 20.5906L66.7468 20.4121ZM66.3697 5.07272L65.6361 5.75223L65.6415 5.7581L65.647 5.76388L66.3697 5.07272ZM65.9622 3.7713L66.9526 3.90953L66.9529 3.90682L65.9622 3.7713ZM66.7136 2.48647L67.3397 3.26628L67.3458 3.2613L66.7136 2.48647ZM69.4832 2.52612L68.7492 3.20536L68.7547 3.21118L69.4832 2.52612ZM69.8908 3.82754L70.8826 3.95466L70.883 3.95219L69.8908 3.82754ZM69.1479 5.11249L69.7851 5.88313L69.786 5.88239L69.1479 5.11249ZM64.1004 20.5386L66.4694 7.48027L64.5015 7.12327L62.1325 20.1816L64.1004 20.5386ZM65.4711 8.30167L69.1015 8.35364L69.1301 6.35384L65.4998 6.30187L65.4711 8.30167ZM68.1318 7.17524L65.7629 20.2336L67.7307 20.5906L70.0997 7.53224L68.1318 7.17524ZM66.7611 19.4122L63.1308 19.3602L63.1022 21.36L66.7325 21.412L66.7611 19.4122ZM67.7143 4.62885C67.4203 4.62465 67.2395 4.53537 67.0924 4.38157L65.647 5.76388C66.1942 6.336 66.9002 6.61741 67.6857 6.62865L67.7143 4.62885ZM67.1034 4.39322C66.9667 4.24567 66.9243 4.11235 66.9526 3.90953L64.9718 3.63308C64.8608 4.42836 65.09 5.16265 65.6361 5.75223L67.1034 4.39322ZM66.9529 3.90682C66.9854 3.66957 67.092 3.46507 67.3397 3.26626L66.0875 1.70669C65.4729 2.20014 65.0786 2.8522 64.9714 3.63579L66.9529 3.90682ZM67.3458 3.2613C67.6008 3.05319 67.8591 2.96598 68.1557 2.97023L68.1843 0.970435C67.4015 0.959229 66.6888 1.21611 66.0814 1.71164L67.3458 3.2613ZM68.1557 2.97023C68.4497 2.97444 68.6176 3.06301 68.7493 3.20534L70.2171 1.8469C69.6773 1.26363 68.9698 0.981679 68.1843 0.970435L68.1557 2.97023ZM68.7547 3.21118C68.875 3.33912 68.9276 3.47128 68.8985 3.70289L70.883 3.95219C70.9821 3.1628 70.763 2.42735 70.2117 1.84105L68.7547 3.21118ZM68.8989 3.70042C68.8709 3.91899 68.7698 4.12696 68.5097 4.34259L69.786 5.88239C70.3885 5.38303 70.7827 4.73436 70.8826 3.95466L68.8989 3.70042ZM68.5106 4.34186C68.2635 4.54618 68.0106 4.6331 67.7143 4.62885L67.6857 6.62865C68.4688 6.63986 69.1811 6.38261 69.7851 5.88313L68.5106 4.34186ZM76.4325 3.09439L77.4165 3.27227L77.6263 2.11138L76.4468 2.0945L76.4325 3.09439ZM73.2852 20.5057L73.2709 21.5056L74.1185 21.5177L74.2692 20.6836L73.2852 20.5057ZM69.6549 20.4537L68.6708 20.2758L68.461 21.4367L69.6406 21.4536L69.6549 20.4537ZM72.8021 3.04243L72.8165 2.04253L71.9689 2.0304L71.8181 2.86455L72.8021 3.04243ZM75.4484 2.91652L72.3011 20.3278L74.2692 20.6836L77.4165 3.27227L75.4484 2.91652ZM73.2995 19.5058L69.6692 19.4538L69.6406 21.4536L73.2709 21.5056L73.2995 19.5058ZM70.6389 20.6316L73.7862 3.2203L71.8181 2.86455L68.6708 20.2758L70.6389 20.6316ZM72.7878 4.04232L76.4181 4.09429L76.4468 2.0945L72.8165 2.04253L72.7878 4.04232Z" fill="#DE0D0D" mask="url(#path-1-outside-1_22_13)"/>
</svg>
