<svg width="71" height="21" viewBox="0 0 71 21" fill="none" xmlns="http://www.w3.org/2000/svg">
<mask id="path-1-outside-1_22_15" maskUnits="userSpaceOnUse" x="0" y="0" width="71" height="21" fill="black">
<rect fill="white" width="71" height="21"/>
<path d="M19.1108 1.54545L16.2131 19H13.0256L7.27273 8.0142H7.13636L5.30398 19H1.61364L4.51136 1.54545H7.75L13.4773 12.5227H13.6222L15.4375 1.54545H19.1108ZM25.1257 19.2557C23.7905 19.2557 22.6854 18.9716 21.8104 18.4034C20.9354 17.8295 20.3189 17.0341 19.9609 16.017C19.6087 14.9943 19.5433 13.804 19.7649 12.446C19.9808 11.1051 20.4297 9.93182 21.1115 8.92614C21.7933 7.92045 22.6598 7.1392 23.7109 6.58239C24.7621 6.01989 25.9467 5.73864 27.2649 5.73864C28.5945 5.73864 29.6967 6.02557 30.5717 6.59943C31.4467 7.16761 32.0632 7.96307 32.4212 8.9858C32.7791 10.0085 32.8473 11.1989 32.6257 12.5568C32.4041 13.892 31.9496 15.0625 31.2621 16.0682C30.5746 17.0739 29.7081 17.858 28.6626 18.4205C27.6172 18.9773 26.4382 19.2557 25.1257 19.2557ZM25.4837 16.4432C26.0973 16.4432 26.6399 16.2699 27.1115 15.9233C27.5888 15.571 27.9837 15.0937 28.2962 14.4915C28.6143 13.8835 28.8359 13.196 28.9609 12.429C29.0859 11.6733 29.0945 11.0028 28.9865 10.4176C28.8786 9.8267 28.6513 9.3608 28.3047 9.01989C27.9638 8.67898 27.495 8.50852 26.8984 8.50852C26.2848 8.50852 25.7393 8.68466 25.2621 9.03693C24.7848 9.38352 24.3899 9.8608 24.0774 10.4688C23.7649 11.0767 23.5462 11.767 23.4212 12.5398C23.3018 13.2898 23.2933 13.9602 23.3956 14.5511C23.4979 15.1364 23.7223 15.5994 24.0689 15.9403C24.4155 16.2756 24.8871 16.4432 25.4837 16.4432ZM33.9382 19L36.12 5.90909H39.5717L39.1967 8.21875H39.3416C39.7393 7.4517 40.2933 6.84659 41.0036 6.40341C41.7195 5.96023 42.5234 5.73864 43.4155 5.73864C44.3018 5.73864 45.0234 5.96307 45.5803 6.41193C46.1428 6.85511 46.4666 7.45739 46.5518 8.21875H46.6882C47.0746 7.46875 47.657 6.86932 48.4354 6.42045C49.2138 5.96591 50.0831 5.73864 51.0433 5.73864C52.2536 5.73864 53.1797 6.12784 53.8217 6.90625C54.4638 7.68466 54.6655 8.78125 54.4268 10.196L52.9609 19H49.3303L50.6939 10.9119C50.8018 10.179 50.6939 9.63352 50.37 9.27557C50.0462 8.91193 49.5945 8.73011 49.0149 8.73011C48.3558 8.73011 47.8075 8.94034 47.37 9.3608C46.9325 9.77557 46.6626 10.3239 46.5604 11.0057L45.2053 19H41.6854L43.0661 10.8352C43.1626 10.1875 43.0575 9.67614 42.7507 9.30114C42.4496 8.92045 41.9979 8.73011 41.3956 8.73011C40.9979 8.73011 40.62 8.83239 40.2621 9.03693C39.9098 9.2358 39.6115 9.51705 39.3672 9.88068C39.1229 10.2386 38.9638 10.6591 38.8899 11.142L37.5604 19H33.9382ZM61.7351 19.2557C60.3942 19.2557 59.2834 18.983 58.4027 18.4375C57.522 17.8864 56.9027 17.108 56.5447 16.1023C56.1925 15.0909 56.1328 13.8949 56.3658 12.5142C56.593 11.1676 57.0504 9.9858 57.7379 8.96875C58.4311 7.9517 59.3004 7.15909 60.3459 6.59091C61.3913 6.02273 62.5561 5.73864 63.8402 5.73864C64.7038 5.73864 65.4851 5.87784 66.1839 6.15625C66.8885 6.42898 67.4737 6.84375 67.9396 7.40057C68.4055 7.9517 68.7237 8.64205 68.8942 9.47159C69.0703 10.3011 69.0675 11.2727 68.8857 12.3864L68.7237 13.3835H57.6783L58.0277 11.1335H65.6641C65.7493 10.6108 65.7152 10.1477 65.5618 9.74432C65.4084 9.34091 65.1527 9.02557 64.7947 8.7983C64.4368 8.56534 63.9964 8.44886 63.4737 8.44886C62.9396 8.44886 62.4396 8.57955 61.9737 8.84091C61.5078 9.10227 61.1158 9.44602 60.7976 9.87216C60.4851 10.2926 60.2834 10.75 60.1925 11.2443L59.7919 13.4773C59.6783 14.1648 59.701 14.7358 59.8601 15.1903C60.0249 15.6449 60.3089 15.9858 60.7124 16.2131C61.1158 16.4347 61.6271 16.5455 62.2464 16.5455C62.6499 16.5455 63.0277 16.4886 63.38 16.375C63.7379 16.2614 64.0561 16.0938 64.3345 15.8722C64.6129 15.6449 64.8402 15.3636 65.0163 15.0284L68.3317 15.25C68.0249 16.0568 67.5589 16.7614 66.9339 17.3636C66.3089 17.9602 65.5561 18.4261 64.6754 18.7614C63.8004 19.0909 62.8203 19.2557 61.7351 19.2557Z"/>
</mask>
<path d="M19.1108 1.54545L16.2131 19H13.0256L7.27273 8.0142H7.13636L5.30398 19H1.61364L4.51136 1.54545H7.75L13.4773 12.5227H13.6222L15.4375 1.54545H19.1108ZM25.1257 19.2557C23.7905 19.2557 22.6854 18.9716 21.8104 18.4034C20.9354 17.8295 20.3189 17.0341 19.9609 16.017C19.6087 14.9943 19.5433 13.804 19.7649 12.446C19.9808 11.1051 20.4297 9.93182 21.1115 8.92614C21.7933 7.92045 22.6598 7.1392 23.7109 6.58239C24.7621 6.01989 25.9467 5.73864 27.2649 5.73864C28.5945 5.73864 29.6967 6.02557 30.5717 6.59943C31.4467 7.16761 32.0632 7.96307 32.4212 8.9858C32.7791 10.0085 32.8473 11.1989 32.6257 12.5568C32.4041 13.892 31.9496 15.0625 31.2621 16.0682C30.5746 17.0739 29.7081 17.858 28.6626 18.4205C27.6172 18.9773 26.4382 19.2557 25.1257 19.2557ZM25.4837 16.4432C26.0973 16.4432 26.6399 16.2699 27.1115 15.9233C27.5888 15.571 27.9837 15.0937 28.2962 14.4915C28.6143 13.8835 28.8359 13.196 28.9609 12.429C29.0859 11.6733 29.0945 11.0028 28.9865 10.4176C28.8786 9.8267 28.6513 9.3608 28.3047 9.01989C27.9638 8.67898 27.495 8.50852 26.8984 8.50852C26.2848 8.50852 25.7393 8.68466 25.2621 9.03693C24.7848 9.38352 24.3899 9.8608 24.0774 10.4688C23.7649 11.0767 23.5462 11.767 23.4212 12.5398C23.3018 13.2898 23.2933 13.9602 23.3956 14.5511C23.4979 15.1364 23.7223 15.5994 24.0689 15.9403C24.4155 16.2756 24.8871 16.4432 25.4837 16.4432ZM33.9382 19L36.12 5.90909H39.5717L39.1967 8.21875H39.3416C39.7393 7.4517 40.2933 6.84659 41.0036 6.40341C41.7195 5.96023 42.5234 5.73864 43.4155 5.73864C44.3018 5.73864 45.0234 5.96307 45.5803 6.41193C46.1428 6.85511 46.4666 7.45739 46.5518 8.21875H46.6882C47.0746 7.46875 47.657 6.86932 48.4354 6.42045C49.2138 5.96591 50.0831 5.73864 51.0433 5.73864C52.2536 5.73864 53.1797 6.12784 53.8217 6.90625C54.4638 7.68466 54.6655 8.78125 54.4268 10.196L52.9609 19H49.3303L50.6939 10.9119C50.8018 10.179 50.6939 9.63352 50.37 9.27557C50.0462 8.91193 49.5945 8.73011 49.0149 8.73011C48.3558 8.73011 47.8075 8.94034 47.37 9.3608C46.9325 9.77557 46.6626 10.3239 46.5604 11.0057L45.2053 19H41.6854L43.0661 10.8352C43.1626 10.1875 43.0575 9.67614 42.7507 9.30114C42.4496 8.92045 41.9979 8.73011 41.3956 8.73011C40.9979 8.73011 40.62 8.83239 40.2621 9.03693C39.9098 9.2358 39.6115 9.51705 39.3672 9.88068C39.1229 10.2386 38.9638 10.6591 38.8899 11.142L37.5604 19H33.9382ZM61.7351 19.2557C60.3942 19.2557 59.2834 18.983 58.4027 18.4375C57.522 17.8864 56.9027 17.108 56.5447 16.1023C56.1925 15.0909 56.1328 13.8949 56.3658 12.5142C56.593 11.1676 57.0504 9.9858 57.7379 8.96875C58.4311 7.9517 59.3004 7.15909 60.3459 6.59091C61.3913 6.02273 62.5561 5.73864 63.8402 5.73864C64.7038 5.73864 65.4851 5.87784 66.1839 6.15625C66.8885 6.42898 67.4737 6.84375 67.9396 7.40057C68.4055 7.9517 68.7237 8.64205 68.8942 9.47159C69.0703 10.3011 69.0675 11.2727 68.8857 12.3864L68.7237 13.3835H57.6783L58.0277 11.1335H65.6641C65.7493 10.6108 65.7152 10.1477 65.5618 9.74432C65.4084 9.34091 65.1527 9.02557 64.7947 8.7983C64.4368 8.56534 63.9964 8.44886 63.4737 8.44886C62.9396 8.44886 62.4396 8.57955 61.9737 8.84091C61.5078 9.10227 61.1158 9.44602 60.7976 9.87216C60.4851 10.2926 60.2834 10.75 60.1925 11.2443L59.7919 13.4773C59.6783 14.1648 59.701 14.7358 59.8601 15.1903C60.0249 15.6449 60.3089 15.9858 60.7124 16.2131C61.1158 16.4347 61.6271 16.5455 62.2464 16.5455C62.6499 16.5455 63.0277 16.4886 63.38 16.375C63.7379 16.2614 64.0561 16.0938 64.3345 15.8722C64.6129 15.6449 64.8402 15.3636 65.0163 15.0284L68.3317 15.25C68.0249 16.0568 67.5589 16.7614 66.9339 17.3636C66.3089 17.9602 65.5561 18.4261 64.6754 18.7614C63.8004 19.0909 62.8203 19.2557 61.7351 19.2557Z" fill="#090808" fill-opacity="0.46"/>
<path d="M19.1108 1.54545L20.0973 1.70923L20.2905 0.545454H19.1108V1.54545ZM16.2131 19V20H17.0607L17.1996 19.1638L16.2131 19ZM13.0256 19L12.1397 19.4639L12.4204 20H13.0256V19ZM7.27273 8.0142L8.15861 7.5503L7.87788 7.0142H7.27273V8.0142ZM7.13636 8.0142V7.0142H6.28934L6.14999 7.84968L7.13636 8.0142ZM5.30398 19V20H6.151L6.29035 19.1645L5.30398 19ZM1.61364 19L0.627138 18.8362L0.433934 20H1.61364V19ZM4.51136 1.54545V0.545454H3.66369L3.52487 1.38168L4.51136 1.54545ZM7.75 1.54545L8.63658 1.08289L8.35618 0.545454H7.75V1.54545ZM13.4773 12.5227L12.5907 12.9853L12.8711 13.5227H13.4773V12.5227ZM13.6222 12.5227V13.5227H14.4704L14.6088 12.6859L13.6222 12.5227ZM15.4375 1.54545V0.545454H14.5893L14.4509 1.3823L15.4375 1.54545ZM18.1243 1.38168L15.2266 18.8362L17.1996 19.1638L20.0973 1.70923L18.1243 1.38168ZM16.2131 18H13.0256V20H16.2131V18ZM13.9115 18.5361L8.15861 7.5503L6.38684 8.47811L12.1397 19.4639L13.9115 18.5361ZM7.27273 7.0142H7.13636V9.0142H7.27273V7.0142ZM6.14999 7.84968L4.3176 18.8355L6.29035 19.1645L8.12274 8.17873L6.14999 7.84968ZM5.30398 18H1.61364V20H5.30398V18ZM2.60013 19.1638L5.49786 1.70923L3.52487 1.38168L0.627138 18.8362L2.60013 19.1638ZM4.51136 2.54545H7.75V0.545454H4.51136V2.54545ZM6.86342 2.00802L12.5907 12.9853L14.3639 12.0602L8.63658 1.08289L6.86342 2.00802ZM13.4773 13.5227H13.6222V11.5227H13.4773V13.5227ZM14.6088 12.6859L16.4241 1.70861L14.4509 1.3823L12.6356 12.3596L14.6088 12.6859ZM15.4375 2.54545H19.1108V0.545454H15.4375V2.54545ZM21.8104 18.4034L21.2619 19.2396L21.2658 19.2421L21.8104 18.4034ZM19.9609 16.017L19.0154 16.3427L19.0177 16.349L19.9609 16.017ZM19.7649 12.446L20.7519 12.6071L20.7522 12.605L19.7649 12.446ZM21.1115 8.92614L20.2838 8.36498L20.2838 8.36498L21.1115 8.92614ZM23.7109 6.58239L24.179 7.46607L24.1828 7.46408L23.7109 6.58239ZM30.5717 6.59943L30.0233 7.43564L30.0271 7.43812L30.5717 6.59943ZM32.4212 8.9858L31.4773 9.31614V9.31615L32.4212 8.9858ZM32.6257 12.5568L33.6122 12.7205L33.6127 12.7179L32.6257 12.5568ZM31.2621 16.0682L30.4365 15.5038L31.2621 16.0682ZM28.6626 18.4205L29.1327 19.3031L29.1365 19.3011L28.6626 18.4205ZM27.1115 15.9233L27.7037 16.7291L27.7054 16.7279L27.1115 15.9233ZM28.2962 14.4915L27.4102 14.0278L27.4085 14.0309L28.2962 14.4915ZM28.9609 12.429L27.9743 12.2658L27.974 12.2681L28.9609 12.429ZM28.9865 10.4176L28.0028 10.5973L28.0031 10.599L28.9865 10.4176ZM28.3047 9.01989L27.5976 9.72702L27.6034 9.73281L28.3047 9.01989ZM25.2621 9.03693L25.8497 9.84611L25.8559 9.84151L25.2621 9.03693ZM23.4212 12.5398L22.434 12.3801L22.4336 12.3827L23.4212 12.5398ZM23.3956 14.5511L22.4102 14.7217L22.4105 14.7233L23.3956 14.5511ZM24.0689 15.9403L23.3676 16.6533L23.3737 16.6591L24.0689 15.9403ZM25.1257 18.2557C23.9302 18.2557 23.0281 18.0018 22.355 17.5647L21.2658 19.2421C22.3427 19.9414 23.6508 20.2557 25.1257 20.2557V18.2557ZM22.3588 17.5672C21.673 17.1175 21.1918 16.5021 20.9042 15.6851L19.0177 16.349C19.446 17.5661 20.1977 18.5416 21.2619 19.2396L22.3588 17.5672ZM20.9064 15.6914C20.6207 14.8618 20.5498 13.8452 20.7519 12.6071L18.778 12.285C18.5368 13.7628 18.5966 15.1268 19.0155 16.3427L20.9064 15.6914ZM20.7522 12.605C20.9477 11.3911 21.3485 10.3586 21.9392 9.48729L20.2838 8.36498C19.5109 9.50502 19.014 10.8191 18.7776 12.2871L20.7522 12.605ZM21.9392 9.48729C22.5314 8.61387 23.2755 7.94468 24.179 7.46606L23.2428 5.69872C22.0441 6.33373 21.0553 7.22704 20.2838 8.36498L21.9392 9.48729ZM24.1828 7.46408C25.0739 6.98721 26.0936 6.73864 27.2649 6.73864V4.73864C25.7999 4.73864 24.4503 5.05257 23.2391 5.70069L24.1828 7.46408ZM27.2649 6.73864C28.452 6.73864 29.3502 6.99417 30.0233 7.43563L31.1202 5.76323C30.0433 5.05697 28.7369 4.73864 27.2649 4.73864V6.73864ZM30.0271 7.43812C30.7089 7.88081 31.1895 8.49371 31.4773 9.31614L33.365 8.65545C32.937 7.43243 32.1846 6.45441 31.1163 5.76074L30.0271 7.43812ZM31.4773 9.31615C31.7672 10.1443 31.8406 11.1591 31.6388 12.3958L33.6127 12.7179C33.854 11.2386 33.7911 9.87274 33.365 8.65544L31.4773 9.31615ZM31.6392 12.3931C31.4388 13.6007 31.0331 14.6311 30.4365 15.5038L32.0876 16.6325C32.866 15.4939 33.3694 14.1834 33.6122 12.7205L31.6392 12.3931ZM30.4365 15.5038C29.8369 16.3811 29.0897 17.0551 28.1888 17.5398L29.1365 19.3011C30.3265 18.6608 31.3123 17.7667 32.0876 16.6325L30.4365 15.5038ZM28.1926 17.5378C27.3069 18.0095 26.2923 18.2557 25.1257 18.2557V20.2557C26.5841 20.2557 27.9274 19.945 29.1327 19.3031L28.1926 17.5378ZM25.4837 17.4432C26.2993 17.4432 27.0518 17.2082 27.7037 16.7291L26.5193 15.1175C26.2281 15.3316 25.8953 15.4432 25.4837 15.4432V17.4432ZM27.7054 16.7279C28.3221 16.2726 28.8111 15.6704 29.1838 14.952L27.4085 14.0309C27.1562 14.5171 26.8554 14.8694 26.5177 15.1187L27.7054 16.7279ZM29.1822 14.9552C29.5561 14.2407 29.8079 13.4488 29.9479 12.5898L27.974 12.2681C27.8639 12.9433 27.6726 13.5264 27.4102 14.0278L29.1822 14.9552ZM29.9475 12.5922C30.0863 11.7535 30.1039 10.9626 29.9699 10.2362L28.0031 10.599C28.085 11.043 28.0856 11.5931 27.9743 12.2658L29.9475 12.5922ZM29.9702 10.2379C29.8341 9.49267 29.5308 8.82324 29.0059 8.30696L27.6034 9.73281C27.7717 9.89835 27.923 10.1607 28.0028 10.5973L29.9702 10.2379ZM29.0118 8.31278C28.4409 7.7419 27.6935 7.50852 26.8984 7.50852V9.50852C27.2965 9.50852 27.4866 9.61606 27.5976 9.72699L29.0118 8.31278ZM26.8984 7.50852C26.0789 7.50852 25.3237 7.74854 24.6682 8.23236L25.8559 9.84151C26.155 9.62077 26.4907 9.50852 26.8984 9.50852V7.50852ZM24.6745 8.22778C24.0517 8.68004 23.5608 9.28645 23.188 10.0116L24.9668 10.9259C25.2191 10.4351 25.5179 10.087 25.8497 9.84608L24.6745 8.22778ZM23.188 10.0116C22.8211 10.7254 22.5734 11.5185 22.434 12.3801L24.4083 12.6995C24.519 12.0156 24.7087 11.428 24.9668 10.9259L23.188 10.0116ZM22.4336 12.3827C22.3014 13.2137 22.285 13.998 22.4102 14.7217L24.3809 14.3806C24.3017 13.9225 24.3023 13.3659 24.4087 12.6969L22.4336 12.3827ZM22.4105 14.7233C22.5406 15.4676 22.842 16.1362 23.3677 16.6533L24.7701 15.2274C24.6026 15.0626 24.4551 14.8052 24.3807 14.379L22.4105 14.7233ZM23.3737 16.6591C23.9487 17.2153 24.6925 17.4432 25.4837 17.4432V15.4432C25.0816 15.4432 24.8823 15.3358 24.7641 15.2215L23.3737 16.6591ZM33.9382 19L32.9518 18.8356L32.7577 20H33.9382V19ZM36.12 5.90909V4.90909H35.2729L35.1336 5.74469L36.12 5.90909ZM39.5717 5.90909L40.5588 6.06935L40.7472 4.90909H39.5717V5.90909ZM39.1967 8.21875L38.2097 8.05849L38.0213 9.21875H39.1967V8.21875ZM39.3416 8.21875V9.21875H39.9495L40.2294 8.67907L39.3416 8.21875ZM41.0036 6.40341L40.4772 5.55314L40.4742 5.55503L41.0036 6.40341ZM45.5803 6.41193L44.9526 7.19052L44.9614 7.19742L45.5803 6.41193ZM46.5518 8.21875L45.5581 8.33L45.6575 9.21875H46.5518V8.21875ZM46.6882 8.21875V9.21875H47.298L47.5772 8.67671L46.6882 8.21875ZM48.4354 6.42045L48.9349 7.28676L48.9396 7.284L48.4354 6.42045ZM53.8217 6.90625L53.0503 7.54255H53.0503L53.8217 6.90625ZM54.4268 10.196L53.4408 10.0297L53.4404 10.0318L54.4268 10.196ZM52.9609 19V20H53.8082L53.9474 19.1642L52.9609 19ZM49.3303 19L48.3442 18.8337L48.1475 20H49.3303V19ZM50.6939 10.9119L51.68 11.0782L51.6817 11.0679L51.6832 11.0576L50.6939 10.9119ZM50.37 9.27557L49.6232 9.94068L49.6285 9.94648L50.37 9.27557ZM47.37 9.3608L48.0581 10.0865L48.063 10.0818L47.37 9.3608ZM46.5604 11.0057L47.5463 11.1728L47.5479 11.1634L47.5493 11.154L46.5604 11.0057ZM45.2053 19V20H46.05L46.1912 19.1671L45.2053 19ZM41.6854 19L40.6994 18.8333L40.5021 20H41.6854V19ZM43.0661 10.8352L44.0521 11.002L44.0537 10.9924L44.0551 10.9827L43.0661 10.8352ZM42.7507 9.30114L41.9664 9.92154L41.9715 9.928L41.9768 9.93437L42.7507 9.30114ZM40.2621 9.03693L40.7537 9.90777L40.7582 9.90518L40.2621 9.03693ZM39.3672 9.88068L40.1932 10.4444L40.1972 10.4384L39.3672 9.88068ZM38.8899 11.142L39.8759 11.3089L39.8772 11.3011L39.8784 11.2932L38.8899 11.142ZM37.5604 19V20H38.4054L38.5464 19.1668L37.5604 19ZM34.9246 19.1644L37.1064 6.07349L35.1336 5.74469L32.9518 18.8356L34.9246 19.1644ZM36.12 6.90909H39.5717V4.90909H36.12V6.90909ZM38.5847 5.74883L38.2097 8.05849L40.1838 8.37901L40.5588 6.06935L38.5847 5.74883ZM39.1967 9.21875H39.3416V7.21875H39.1967V9.21875ZM40.2294 8.67907C40.5474 8.06581 40.9798 7.59693 41.5329 7.25179L40.4742 5.55503C39.6068 6.09625 38.9313 6.8376 38.4539 7.75843L40.2294 8.67907ZM41.5299 7.25367C42.0782 6.91428 42.6978 6.73864 43.4155 6.73864V4.73864C42.349 4.73864 41.3608 5.00617 40.4772 5.55314L41.5299 7.25367ZM43.4155 6.73864C44.1296 6.73864 44.6129 6.91657 44.9527 7.19047L46.2079 5.63339C45.434 5.00957 44.4741 4.73864 43.4155 4.73864V6.73864ZM44.9614 7.19742C45.298 7.46265 45.5003 7.81388 45.5581 8.33L47.5456 8.1075C47.433 7.10089 46.9875 6.24758 46.1991 5.62644L44.9614 7.19742ZM46.5518 9.21875H46.6882V7.21875H46.5518V9.21875ZM47.5772 8.67671C47.8698 8.10864 48.3115 7.64624 48.9349 7.28675L47.9358 5.55416C47.0024 6.0924 46.2793 6.82886 45.7992 7.76079L47.5772 8.67671ZM48.9396 7.284C49.555 6.92468 50.2483 6.73864 51.0433 6.73864V4.73864C49.9179 4.73864 48.8726 5.00714 47.9311 5.5569L48.9396 7.284ZM51.0433 6.73864C52.0208 6.73864 52.6364 7.04081 53.0503 7.54255L54.5932 6.26995C53.7229 5.21487 52.4863 4.73864 51.0433 4.73864V6.73864ZM53.0503 7.54255C53.4402 8.01532 53.6522 8.77633 53.4408 10.0297L55.4129 10.3623C55.6788 8.78617 55.4873 7.35399 54.5932 6.26995L53.0503 7.54255ZM53.4404 10.0318L51.9745 18.8358L53.9474 19.1642L55.4133 10.3603L53.4404 10.0318ZM52.9609 18H49.3303V20H52.9609V18ZM50.3163 19.1663L51.68 11.0782L49.7078 10.7457L48.3442 18.8337L50.3163 19.1663ZM51.6832 11.0576C51.8112 10.1888 51.7235 9.28103 51.1116 8.60466L49.6285 9.94648C49.6643 9.98602 49.7925 10.1692 49.7046 10.7662L51.6832 11.0576ZM51.1168 8.61048C50.567 7.99318 49.8204 7.73011 49.0149 7.73011V9.73011C49.3685 9.73011 49.5253 9.83069 49.6233 9.94066L51.1168 8.61048ZM49.0149 7.73011C48.1219 7.73011 47.3178 8.02409 46.6771 8.63978L48.063 10.0818C48.2973 9.85659 48.5898 9.73011 49.0149 9.73011V7.73011ZM46.682 8.63509C46.0598 9.22498 45.7018 9.98812 45.5714 10.8573L47.5493 11.154C47.6235 10.6596 47.8053 10.3262 48.058 10.0865L46.682 8.63509ZM45.5744 10.8386L44.2193 18.8329L46.1912 19.1671L47.5463 11.1728L45.5744 10.8386ZM45.2053 18H41.6854V20H45.2053V18ZM42.6714 19.1667L44.0521 11.002L42.0801 10.6685L40.6994 18.8333L42.6714 19.1667ZM44.0551 10.9827C44.178 10.1585 44.0665 9.33016 43.5247 8.6679L41.9768 9.93437C42.0485 10.0221 42.1473 10.2165 42.077 10.6877L44.0551 10.9827ZM43.535 8.68073C42.999 8.00319 42.2225 7.73011 41.3956 7.73011V9.73011C41.7732 9.73011 41.9001 9.83772 41.9664 9.92154L43.535 8.68073ZM41.3956 7.73011C40.8173 7.73011 40.2692 7.88109 39.7659 8.16869L40.7582 9.90518C40.9708 9.78368 41.1784 9.73011 41.3956 9.73011V7.73011ZM39.7705 8.16611C39.2715 8.44779 38.861 8.84098 38.5371 9.32299L40.1972 10.4384C40.362 10.1931 40.5481 10.0238 40.7537 9.90776L39.7705 8.16611ZM38.5412 9.31694C38.2024 9.81342 37.995 10.3789 37.9014 10.9909L39.8784 11.2932C39.9326 10.9393 40.0434 10.6638 40.1931 10.4444L38.5412 9.31694ZM37.9039 10.9752L36.5744 18.8332L38.5464 19.1668L39.8759 11.3089L37.9039 10.9752ZM37.5604 18H33.9382V20H37.5604V18ZM58.4027 18.4375L57.8722 19.2852L57.8762 19.2876L58.4027 18.4375ZM56.5447 16.1023L55.6004 16.4312L55.6026 16.4376L56.5447 16.1023ZM56.3658 12.5142L55.3797 12.3478L55.3797 12.3478L56.3658 12.5142ZM57.7379 8.96875L56.9116 8.40555L56.9095 8.40872L57.7379 8.96875ZM60.3459 6.59091L59.8684 5.71228V5.71228L60.3459 6.59091ZM66.184 6.15625L65.8138 7.08529L65.823 7.08882L66.184 6.15625ZM67.9396 7.40057L67.1727 8.0423L67.1759 8.04616L67.9396 7.40057ZM68.8942 9.47159L67.9146 9.67287L67.916 9.67929L68.8942 9.47159ZM68.8857 12.3864L67.8987 12.2252L67.8986 12.2261L68.8857 12.3864ZM68.7237 13.3835V14.3835H69.5744L69.7108 13.5438L68.7237 13.3835ZM57.6783 13.3835L56.6901 13.2301L56.511 14.3835H57.6783V13.3835ZM58.0277 11.1335V10.1335H57.171L57.0395 10.9801L58.0277 11.1335ZM65.6641 11.1335V12.1335H66.5142L66.651 11.2944L65.6641 11.1335ZM65.5618 9.74432L64.6271 10.0998L65.5618 9.74432ZM64.7947 8.7983L64.2493 9.63649L64.2587 9.64251L64.7947 8.7983ZM61.9737 8.84091L62.463 9.71305L61.9737 8.84091ZM60.7976 9.87216L59.9963 9.27387L59.995 9.27563L60.7976 9.87216ZM60.1925 11.2443L59.209 11.0634L59.2082 11.0677L60.1925 11.2443ZM59.7919 13.4773L58.8075 13.3007L58.8053 13.3142L59.7919 13.4773ZM59.8601 15.1903L58.9162 15.5207L58.9199 15.5311L59.8601 15.1903ZM60.7124 16.2131L60.2215 17.0844L60.2309 17.0895L60.7124 16.2131ZM63.38 16.375L63.0774 15.4219L63.073 15.4233L63.38 16.375ZM64.3345 15.8722L64.9573 16.6546L64.9669 16.6468L64.3345 15.8722ZM65.0163 15.0284L65.083 14.0306L64.4338 13.9872L64.1311 14.5633L65.0163 15.0284ZM68.3317 15.25L69.2664 15.6054L69.7467 14.3423L68.3984 14.2522L68.3317 15.25ZM66.934 17.3636L67.6244 18.087L67.6278 18.0837L66.934 17.3636ZM64.6754 18.7614L65.0279 19.6972L65.0312 19.6959L64.6754 18.7614ZM61.7351 18.2557C60.5264 18.2557 59.6115 18.0099 58.9292 17.5874L57.8762 19.2876C58.9552 19.956 60.262 20.2557 61.7351 20.2557V18.2557ZM58.9332 17.5898C58.2491 17.1617 57.7715 16.5667 57.4868 15.7669L55.6026 16.4376C56.0339 17.6492 56.7949 18.611 57.8722 19.2852L58.9332 17.5898ZM57.4891 15.7733C57.2066 14.9624 57.1385 13.9447 57.3518 12.6806L55.3797 12.3478C55.1271 13.845 55.1783 15.2194 55.6004 16.4312L57.4891 15.7733ZM57.3518 12.6806C57.558 11.459 57.9675 10.4147 58.5664 9.52878L56.9095 8.40872C56.1333 9.5569 55.6281 10.8762 55.3797 12.3478L57.3518 12.6806ZM58.5643 9.53194C59.1711 8.6416 59.9225 7.95914 60.8234 7.46953L59.8684 5.71228C58.6783 6.35904 57.6911 7.26181 56.9116 8.40556L58.5643 9.53194ZM60.8234 7.46953C61.7108 6.98724 62.7093 6.73864 63.8402 6.73864V4.73864C62.4029 4.73864 61.0719 5.05821 59.8684 5.71228L60.8234 7.46953ZM63.8402 6.73864C64.5957 6.73864 65.2488 6.86016 65.8139 7.08525L66.554 5.22725C65.7213 4.89552 64.812 4.73864 63.8402 4.73864V6.73864ZM65.823 7.08882C66.3764 7.30306 66.8198 7.62055 67.1727 8.04229L68.7066 6.75884C68.1276 6.06695 67.4006 5.55489 66.5449 5.22368L65.823 7.08882ZM67.1759 8.04616C67.5165 8.44905 67.772 8.97864 67.9146 9.67286L69.8737 9.27032C69.6755 8.30545 69.2945 7.45436 68.7033 6.75498L67.1759 8.04616ZM67.916 9.67929C68.0594 10.3547 68.0668 11.1959 67.8987 12.2252L69.8726 12.5475C70.0682 11.3496 70.0812 10.2476 69.8724 9.26389L67.916 9.67929ZM67.8986 12.2261L67.7367 13.2232L69.7108 13.5438L69.8727 12.5467L67.8986 12.2261ZM68.7237 12.3835H57.6783V14.3835H68.7237V12.3835ZM58.6664 13.537L59.0159 11.287L57.0395 10.9801L56.6901 13.2301L58.6664 13.537ZM58.0277 12.1335H65.6641V10.1335H58.0277V12.1335ZM66.651 11.2944C66.7582 10.6372 66.7252 9.99035 66.4965 9.38887L64.6271 10.0998C64.7052 10.3051 64.7404 10.5844 64.6771 10.9726L66.651 11.2944ZM66.4965 9.38887C66.2679 8.78768 65.8743 8.29921 65.3307 7.95408L64.2587 9.64251C64.4311 9.75193 64.5489 9.89414 64.6271 10.0998L66.4965 9.38887ZM65.3402 7.96016C64.7869 7.60005 64.1465 7.44886 63.4737 7.44886V9.44886C63.8464 9.44886 64.0867 9.53063 64.2493 9.63643L65.3402 7.96016ZM63.4737 7.44886C62.7682 7.44886 62.0998 7.62359 61.4845 7.96877L62.463 9.71305C62.7795 9.5355 63.111 9.44886 63.4737 9.44886V7.44886ZM61.4845 7.96877C60.8971 8.29826 60.3986 8.73511 59.9963 9.27387L61.5989 10.4704C61.833 10.1569 62.1185 9.90628 62.463 9.71305L61.4845 7.96877ZM59.995 9.27563C59.5951 9.81361 59.3287 10.4121 59.209 11.0634L61.176 11.4252C61.238 11.0879 61.375 10.7716 61.6002 10.4687L59.995 9.27563ZM59.2082 11.0677L58.8076 13.3007L60.7762 13.6538L61.1768 11.4209L59.2082 11.0677ZM58.8053 13.3142C58.6757 14.0981 58.6825 14.8528 58.9162 15.5207L60.8039 14.86C60.7195 14.6188 60.6808 14.2315 60.7785 13.6403L58.8053 13.3142ZM58.9199 15.5311C59.1623 16.1997 59.5999 16.7341 60.2215 17.0843L61.2032 15.3418C61.018 15.2375 60.8874 15.0901 60.8002 14.8495L58.9199 15.5311ZM60.2309 17.0895C60.8241 17.4154 61.5146 17.5455 62.2464 17.5455V15.5455C61.7396 15.5455 61.4075 15.454 61.1938 15.3366L60.2309 17.0895ZM62.2464 17.5455C62.7448 17.5455 63.227 17.4751 63.687 17.3267L63.073 15.4233C62.8284 15.5022 62.555 15.5455 62.2464 15.5455V17.5455ZM63.6826 17.3281C64.1502 17.1797 64.5782 16.9563 64.9573 16.6546L63.7118 15.0897C63.534 15.2312 63.3256 15.3431 63.0774 15.4219L63.6826 17.3281ZM64.9669 16.6468C65.3551 16.3299 65.6663 15.9414 65.9016 15.4935L64.1311 14.5633C64.0141 14.7859 63.8707 14.9599 63.7021 15.0975L64.9669 16.6468ZM64.9496 16.0262L68.265 16.2478L68.3984 14.2522L65.083 14.0306L64.9496 16.0262ZM67.397 14.8946C67.1429 15.5628 66.7595 16.143 66.2401 16.6436L67.6278 18.0837C68.3584 17.3797 68.9068 16.5509 69.2664 15.6054L67.397 14.8946ZM66.2435 16.6403C65.7233 17.1368 65.0872 17.5346 64.3197 17.8268L65.0312 19.6959C66.025 19.3176 66.8946 18.7836 67.6244 18.087L66.2435 16.6403ZM64.323 17.8255C63.5772 18.1064 62.719 18.2557 61.7351 18.2557V20.2557C62.9217 20.2557 64.0237 20.0754 65.0279 19.6972L64.323 17.8255Z" fill="#DE0D0D" mask="url(#path-1-outside-1_22_15)"/>
</svg>
