<svg width="60" height="21" viewBox="0 0 60 21" fill="none" xmlns="http://www.w3.org/2000/svg">
<mask id="path-1-outside-1_22_17" maskUnits="userSpaceOnUse" x="0" y="0" width="60" height="21" fill="black">
<rect fill="white" width="60" height="21"/>
<path d="M1.48082 19L4.37855 1.54545H11.2649C12.5831 1.54545 13.6655 1.7983 14.5121 2.30398C15.3643 2.80398 15.9609 3.5 16.3018 4.39204C16.6484 5.27841 16.728 6.30114 16.5405 7.46023C16.3473 8.625 15.9268 9.65057 15.2791 10.5369C14.6371 11.4176 13.8018 12.1051 12.7734 12.5994C11.745 13.0937 10.5575 13.3409 9.21094 13.3409H4.82173L5.30753 10.3835H9.10014C9.81605 10.3835 10.4268 10.2614 10.9325 10.017C11.4439 9.76705 11.8501 9.4233 12.1513 8.9858C12.4524 8.54261 12.6484 8.03409 12.7393 7.46023C12.8359 6.875 12.8047 6.36648 12.6456 5.93466C12.4865 5.50284 12.1939 5.16761 11.7678 4.92898C11.3473 4.68466 10.782 4.5625 10.0717 4.5625H7.5831L5.17116 19H1.48082ZM22.6726 19.2557C21.3317 19.2557 20.2209 18.983 19.3402 18.4375C18.4595 17.8864 17.8402 17.108 17.4822 16.1023C17.13 15.0909 17.0703 13.8949 17.3033 12.5142C17.5305 11.1676 17.9879 9.9858 18.6754 8.96875C19.3686 7.9517 20.2379 7.15909 21.2834 6.59091C22.3288 6.02273 23.4936 5.73864 24.7777 5.73864C25.6413 5.73864 26.4226 5.87784 27.1214 6.15625C27.826 6.42898 28.4112 6.84375 28.8771 7.40057C29.343 7.9517 29.6612 8.64205 29.8317 9.47159C30.0078 10.3011 30.005 11.2727 29.8232 12.3864L29.6612 13.3835H18.6158L18.9652 11.1335H26.6016C26.6868 10.6108 26.6527 10.1477 26.4993 9.74432C26.3459 9.34091 26.0902 9.02557 25.7322 8.7983C25.3743 8.56534 24.9339 8.44886 24.4112 8.44886C23.8771 8.44886 23.3771 8.57955 22.9112 8.84091C22.4453 9.10227 22.0533 9.44602 21.7351 9.87216C21.4226 10.2926 21.2209 10.75 21.13 11.2443L20.7294 13.4773C20.6158 14.1648 20.6385 14.7358 20.7976 15.1903C20.9624 15.6449 21.2464 15.9858 21.6499 16.2131C22.0533 16.4347 22.5646 16.5455 23.1839 16.5455C23.5874 16.5455 23.9652 16.4886 24.3175 16.375C24.6754 16.2614 24.9936 16.0938 25.272 15.8722C25.5504 15.6449 25.7777 15.3636 25.9538 15.0284L29.2692 15.25C28.9624 16.0568 28.4964 16.7614 27.8714 17.3636C27.2464 17.9602 26.4936 18.4261 25.6129 18.7614C24.7379 19.0909 23.7578 19.2557 22.6726 19.2557ZM43.5426 9.64205L40.2443 9.84659C40.2273 9.55682 40.1477 9.2983 40.0057 9.07102C39.8693 8.83807 39.6676 8.65341 39.4006 8.51705C39.1392 8.38068 38.8097 8.3125 38.4119 8.3125C37.8153 8.3125 37.2841 8.44886 36.8182 8.72159C36.3523 8.99432 36.0881 9.34375 36.0256 9.76989C35.9744 10.0426 36.0455 10.2727 36.2386 10.4602C36.4318 10.6477 36.821 10.8068 37.4062 10.9375L39.7074 11.4148C40.9347 11.6761 41.821 12.1108 42.3665 12.7188C42.9176 13.3267 43.1136 14.1222 42.9545 15.1051C42.8125 15.9403 42.446 16.6705 41.8551 17.2955C41.2642 17.9148 40.5142 18.3977 39.6051 18.7443C38.696 19.0852 37.6875 19.2557 36.5795 19.2557C34.8011 19.2557 33.4489 18.892 32.5227 18.1648C31.5966 17.4375 31.1506 16.4517 31.1847 15.2074L34.7301 15.0199C34.7585 15.554 34.946 15.9574 35.2926 16.2301C35.6392 16.4972 36.1136 16.6335 36.7159 16.6392C37.392 16.6506 37.9659 16.5114 38.4375 16.2216C38.9148 15.9261 39.1847 15.5682 39.2472 15.1477C39.2926 14.8523 39.2074 14.6136 38.9915 14.4318C38.7813 14.25 38.3949 14.0994 37.8324 13.9801L35.6506 13.5284C34.4119 13.2727 33.5227 12.8153 32.983 12.1562C32.4432 11.4972 32.2585 10.6591 32.429 9.64205C32.5653 8.82955 32.9034 8.13352 33.4432 7.55398C33.9886 6.96875 34.6903 6.51989 35.5483 6.20739C36.4119 5.89489 37.3864 5.73864 38.4716 5.73864C40.1705 5.73864 41.4489 6.08807 42.3068 6.78693C43.1705 7.4858 43.5824 8.4375 43.5426 9.64205ZM50.5163 19.2557C49.1811 19.2557 48.076 18.9716 47.201 18.4034C46.326 17.8295 45.7095 17.0341 45.3516 16.017C44.9993 14.9943 44.9339 13.804 45.1555 12.446C45.3714 11.1051 45.8203 9.93182 46.5021 8.92614C47.1839 7.92045 48.0504 7.1392 49.1016 6.58239C50.1527 6.01989 51.3374 5.73864 52.6555 5.73864C53.9851 5.73864 55.0874 6.02557 55.9624 6.59943C56.8374 7.16761 57.4538 7.96307 57.8118 8.9858C58.1697 10.0085 58.2379 11.1989 58.0163 12.5568C57.7947 13.892 57.3402 15.0625 56.6527 16.0682C55.9652 17.0739 55.0987 17.858 54.0533 18.4205C53.0078 18.9773 51.8288 19.2557 50.5163 19.2557ZM50.8743 16.4432C51.4879 16.4432 52.0305 16.2699 52.5021 15.9233C52.9794 15.571 53.3743 15.0937 53.6868 14.4915C54.005 13.8835 54.2266 13.196 54.3516 12.429C54.4766 11.6733 54.4851 11.0028 54.3771 10.4176C54.2692 9.8267 54.0419 9.3608 53.6953 9.01989C53.3544 8.67898 52.8857 8.50852 52.2891 8.50852C51.6754 8.50852 51.13 8.68466 50.6527 9.03693C50.1754 9.38352 49.7805 9.8608 49.468 10.4688C49.1555 11.0767 48.9368 11.767 48.8118 12.5398C48.6925 13.2898 48.6839 13.9602 48.7862 14.5511C48.8885 15.1364 49.1129 15.5994 49.4595 15.9403C49.8061 16.2756 50.2777 16.4432 50.8743 16.4432Z"/>
</mask>
<path d="M1.48082 19L4.37855 1.54545H11.2649C12.5831 1.54545 13.6655 1.7983 14.5121 2.30398C15.3643 2.80398 15.9609 3.5 16.3018 4.39204C16.6484 5.27841 16.728 6.30114 16.5405 7.46023C16.3473 8.625 15.9268 9.65057 15.2791 10.5369C14.6371 11.4176 13.8018 12.1051 12.7734 12.5994C11.745 13.0937 10.5575 13.3409 9.21094 13.3409H4.82173L5.30753 10.3835H9.10014C9.81605 10.3835 10.4268 10.2614 10.9325 10.017C11.4439 9.76705 11.8501 9.4233 12.1513 8.9858C12.4524 8.54261 12.6484 8.03409 12.7393 7.46023C12.8359 6.875 12.8047 6.36648 12.6456 5.93466C12.4865 5.50284 12.1939 5.16761 11.7678 4.92898C11.3473 4.68466 10.782 4.5625 10.0717 4.5625H7.5831L5.17116 19H1.48082ZM22.6726 19.2557C21.3317 19.2557 20.2209 18.983 19.3402 18.4375C18.4595 17.8864 17.8402 17.108 17.4822 16.1023C17.13 15.0909 17.0703 13.8949 17.3033 12.5142C17.5305 11.1676 17.9879 9.9858 18.6754 8.96875C19.3686 7.9517 20.2379 7.15909 21.2834 6.59091C22.3288 6.02273 23.4936 5.73864 24.7777 5.73864C25.6413 5.73864 26.4226 5.87784 27.1214 6.15625C27.826 6.42898 28.4112 6.84375 28.8771 7.40057C29.343 7.9517 29.6612 8.64205 29.8317 9.47159C30.0078 10.3011 30.005 11.2727 29.8232 12.3864L29.6612 13.3835H18.6158L18.9652 11.1335H26.6016C26.6868 10.6108 26.6527 10.1477 26.4993 9.74432C26.3459 9.34091 26.0902 9.02557 25.7322 8.7983C25.3743 8.56534 24.9339 8.44886 24.4112 8.44886C23.8771 8.44886 23.3771 8.57955 22.9112 8.84091C22.4453 9.10227 22.0533 9.44602 21.7351 9.87216C21.4226 10.2926 21.2209 10.75 21.13 11.2443L20.7294 13.4773C20.6158 14.1648 20.6385 14.7358 20.7976 15.1903C20.9624 15.6449 21.2464 15.9858 21.6499 16.2131C22.0533 16.4347 22.5646 16.5455 23.1839 16.5455C23.5874 16.5455 23.9652 16.4886 24.3175 16.375C24.6754 16.2614 24.9936 16.0938 25.272 15.8722C25.5504 15.6449 25.7777 15.3636 25.9538 15.0284L29.2692 15.25C28.9624 16.0568 28.4964 16.7614 27.8714 17.3636C27.2464 17.9602 26.4936 18.4261 25.6129 18.7614C24.7379 19.0909 23.7578 19.2557 22.6726 19.2557ZM43.5426 9.64205L40.2443 9.84659C40.2273 9.55682 40.1477 9.2983 40.0057 9.07102C39.8693 8.83807 39.6676 8.65341 39.4006 8.51705C39.1392 8.38068 38.8097 8.3125 38.4119 8.3125C37.8153 8.3125 37.2841 8.44886 36.8182 8.72159C36.3523 8.99432 36.0881 9.34375 36.0256 9.76989C35.9744 10.0426 36.0455 10.2727 36.2386 10.4602C36.4318 10.6477 36.821 10.8068 37.4062 10.9375L39.7074 11.4148C40.9347 11.6761 41.821 12.1108 42.3665 12.7188C42.9176 13.3267 43.1136 14.1222 42.9545 15.1051C42.8125 15.9403 42.446 16.6705 41.8551 17.2955C41.2642 17.9148 40.5142 18.3977 39.6051 18.7443C38.696 19.0852 37.6875 19.2557 36.5795 19.2557C34.8011 19.2557 33.4489 18.892 32.5227 18.1648C31.5966 17.4375 31.1506 16.4517 31.1847 15.2074L34.7301 15.0199C34.7585 15.554 34.946 15.9574 35.2926 16.2301C35.6392 16.4972 36.1136 16.6335 36.7159 16.6392C37.392 16.6506 37.9659 16.5114 38.4375 16.2216C38.9148 15.9261 39.1847 15.5682 39.2472 15.1477C39.2926 14.8523 39.2074 14.6136 38.9915 14.4318C38.7813 14.25 38.3949 14.0994 37.8324 13.9801L35.6506 13.5284C34.4119 13.2727 33.5227 12.8153 32.983 12.1562C32.4432 11.4972 32.2585 10.6591 32.429 9.64205C32.5653 8.82955 32.9034 8.13352 33.4432 7.55398C33.9886 6.96875 34.6903 6.51989 35.5483 6.20739C36.4119 5.89489 37.3864 5.73864 38.4716 5.73864C40.1705 5.73864 41.4489 6.08807 42.3068 6.78693C43.1705 7.4858 43.5824 8.4375 43.5426 9.64205ZM50.5163 19.2557C49.1811 19.2557 48.076 18.9716 47.201 18.4034C46.326 17.8295 45.7095 17.0341 45.3516 16.017C44.9993 14.9943 44.9339 13.804 45.1555 12.446C45.3714 11.1051 45.8203 9.93182 46.5021 8.92614C47.1839 7.92045 48.0504 7.1392 49.1016 6.58239C50.1527 6.01989 51.3374 5.73864 52.6555 5.73864C53.9851 5.73864 55.0874 6.02557 55.9624 6.59943C56.8374 7.16761 57.4538 7.96307 57.8118 8.9858C58.1697 10.0085 58.2379 11.1989 58.0163 12.5568C57.7947 13.892 57.3402 15.0625 56.6527 16.0682C55.9652 17.0739 55.0987 17.858 54.0533 18.4205C53.0078 18.9773 51.8288 19.2557 50.5163 19.2557ZM50.8743 16.4432C51.4879 16.4432 52.0305 16.2699 52.5021 15.9233C52.9794 15.571 53.3743 15.0937 53.6868 14.4915C54.005 13.8835 54.2266 13.196 54.3516 12.429C54.4766 11.6733 54.4851 11.0028 54.3771 10.4176C54.2692 9.8267 54.0419 9.3608 53.6953 9.01989C53.3544 8.67898 52.8857 8.50852 52.2891 8.50852C51.6754 8.50852 51.13 8.68466 50.6527 9.03693C50.1754 9.38352 49.7805 9.8608 49.468 10.4688C49.1555 11.0767 48.9368 11.767 48.8118 12.5398C48.6925 13.2898 48.6839 13.9602 48.7862 14.5511C48.8885 15.1364 49.1129 15.5994 49.4595 15.9403C49.8061 16.2756 50.2777 16.4432 50.8743 16.4432Z" fill="#090808" fill-opacity="0.46"/>
<path d="M1.48082 19L0.494326 18.8362L0.301121 20H1.48082V19ZM4.37855 1.54545V0.545454H3.53088L3.39205 1.38168L4.37855 1.54545ZM14.5121 2.30398L13.9993 3.16251L14.0061 3.1665L14.5121 2.30398ZM16.3018 4.39204L15.3677 4.74904L15.3705 4.75622L16.3018 4.39204ZM16.5405 7.46023L17.527 7.62385L17.5277 7.61992L16.5405 7.46023ZM15.2791 10.5369L14.4717 9.94691L14.4711 9.94783L15.2791 10.5369ZM12.7734 12.5994L13.2067 13.5007H13.2067L12.7734 12.5994ZM4.82173 13.3409L3.83496 13.1788L3.64407 14.3409H4.82173V13.3409ZM5.30753 10.3835V9.38352H4.45839L4.32075 10.2214L5.30753 10.3835ZM10.9325 10.017L11.3676 10.9175L11.3717 10.9154L10.9325 10.017ZM12.1513 8.9858L12.975 9.55279L12.9784 9.54782L12.1513 8.9858ZM12.7393 7.46023L11.7527 7.29738L11.7517 7.30376L12.7393 7.46023ZM12.6456 5.93466L13.5839 5.58895L13.5839 5.58895L12.6456 5.93466ZM11.7678 4.92898L11.2653 5.7936L11.2722 5.7976L11.2792 5.80148L11.7678 4.92898ZM7.5831 4.5625V3.5625H6.7363L6.59677 4.39772L7.5831 4.5625ZM5.17116 19V20H6.01796L6.1575 19.1648L5.17116 19ZM2.46732 19.1638L5.36505 1.70923L3.39205 1.38168L0.494326 18.8362L2.46732 19.1638ZM4.37855 2.54545H11.2649V0.545454H4.37855V2.54545ZM11.2649 2.54545C12.4614 2.54545 13.3515 2.77555 13.9993 3.16249L15.0249 1.44547C13.9795 0.821039 12.7048 0.545454 11.2649 0.545454V2.54545ZM14.0061 3.1665C14.6697 3.55584 15.1109 4.07708 15.3677 4.74903L17.236 4.03506C16.8109 2.92292 16.059 2.05211 15.0181 1.44145L14.0061 3.1665ZM15.3705 4.75622C15.6384 5.44125 15.7189 6.27691 15.5533 7.30054L17.5277 7.61992C17.7371 6.32536 17.6585 5.11557 17.2332 4.02787L15.3705 4.75622ZM15.554 7.29661C15.3844 8.3191 15.0204 9.19613 14.4717 9.94692L16.0865 11.1269C16.8333 10.105 17.3102 8.9309 17.527 7.62385L15.554 7.29661ZM14.4711 9.94783C13.9309 10.6888 13.2271 11.2719 12.3402 11.6981L13.2067 13.5007C14.3766 12.9384 15.3433 12.1465 16.0872 11.126L14.4711 9.94783ZM12.3402 11.6981C11.4692 12.1168 10.4344 12.3409 9.21094 12.3409V14.3409C10.6807 14.3409 12.0208 14.0707 13.2067 13.5007L12.3402 11.6981ZM9.21094 12.3409H4.82173V14.3409H9.21094V12.3409ZM5.80851 13.503L6.2943 10.5456L4.32075 10.2214L3.83496 13.1788L5.80851 13.503ZM5.30753 11.3835H9.10014V9.38352H5.30753V11.3835ZM9.10014 11.3835C9.92663 11.3835 10.6942 11.2428 11.3676 10.9175L10.4975 9.11663C10.1595 9.27995 9.70548 9.38352 9.10014 9.38352V11.3835ZM11.3717 10.9154C12.0262 10.5955 12.5694 10.1421 12.975 9.55278L11.3275 8.41881C11.1309 8.70448 10.8616 8.93862 10.4933 9.11866L11.3717 10.9154ZM12.9784 9.54782C13.3691 8.97289 13.6151 8.32345 13.727 7.61669L11.7517 7.30376C11.6818 7.74473 11.5358 8.11233 11.3242 8.42378L12.9784 9.54782ZM13.726 7.62307C13.8428 6.91521 13.8178 6.22365 13.5839 5.58895L11.7073 6.28036C11.7916 6.5093 11.829 6.83479 11.7527 7.29738L13.726 7.62307ZM13.5839 5.58895C13.3372 4.91914 12.8766 4.40378 12.2564 4.05647L11.2792 5.80148C11.5112 5.93144 11.6358 6.08654 11.7073 6.28036L13.5839 5.58895ZM12.2702 4.06435C11.6426 3.69969 10.8824 3.5625 10.0717 3.5625V5.5625C10.6815 5.5625 11.052 5.66963 11.2653 5.7936L12.2702 4.06435ZM10.0717 3.5625H7.5831V5.5625H10.0717V3.5625ZM6.59677 4.39772L4.18483 18.8352L6.1575 19.1648L8.56943 4.72728L6.59677 4.39772ZM5.17116 18H1.48082V20H5.17116V18ZM19.3402 18.4375L18.8097 19.2852L18.8137 19.2876L19.3402 18.4375ZM17.4822 16.1023L16.5379 16.4312L16.5401 16.4376L17.4822 16.1023ZM17.3033 12.5142L16.3172 12.3478L16.3172 12.3478L17.3033 12.5142ZM18.6754 8.96875L17.8491 8.40555L17.847 8.40872L18.6754 8.96875ZM21.2834 6.59091L20.8059 5.71228L20.8059 5.71228L21.2834 6.59091ZM27.1214 6.15625L26.7513 7.08529L26.7605 7.08882L27.1214 6.15625ZM28.8771 7.40057L28.1102 8.0423L28.1134 8.04616L28.8771 7.40057ZM29.8317 9.47159L28.8521 9.67287L28.8535 9.67929L29.8317 9.47159ZM29.8232 12.3864L28.8362 12.2252L28.8361 12.2261L29.8232 12.3864ZM29.6612 13.3835V14.3835H30.5119L30.6483 13.5438L29.6612 13.3835ZM18.6158 13.3835L17.6276 13.2301L17.4485 14.3835H18.6158V13.3835ZM18.9652 11.1335V10.1335H18.1085L17.977 10.9801L18.9652 11.1335ZM26.6016 11.1335V12.1335H27.4517L27.5885 11.2944L26.6016 11.1335ZM26.4993 9.74432L25.5646 10.0998L26.4993 9.74432ZM25.7322 8.7983L25.1868 9.63649L25.1962 9.64251L25.7322 8.7983ZM22.9112 8.84091L23.4005 9.71305L22.9112 8.84091ZM21.7351 9.87216L20.9338 9.27387L20.9325 9.27563L21.7351 9.87216ZM21.13 11.2443L20.1465 11.0634L20.1457 11.0677L21.13 11.2443ZM20.7294 13.4773L19.745 13.3007L19.7428 13.3142L20.7294 13.4773ZM20.7976 15.1903L19.8537 15.5207L19.8574 15.5311L20.7976 15.1903ZM21.6499 16.2131L21.159 17.0844L21.1684 17.0895L21.6499 16.2131ZM24.3175 16.375L24.0149 15.4219L24.0105 15.4233L24.3175 16.375ZM25.272 15.8722L25.8948 16.6546L25.9044 16.6468L25.272 15.8722ZM25.9538 15.0284L26.0205 14.0306L25.3713 13.9872L25.0686 14.5633L25.9538 15.0284ZM29.2692 15.25L30.2039 15.6054L30.6842 14.3423L29.3359 14.2522L29.2692 15.25ZM27.8714 17.3636L28.5619 18.087L28.5653 18.0837L27.8714 17.3636ZM25.6129 18.7614L25.9654 19.6972L25.9687 19.6959L25.6129 18.7614ZM22.6726 18.2557C21.4639 18.2557 20.549 18.0099 19.8667 17.5874L18.8137 19.2876C19.8927 19.956 21.1995 20.2557 22.6726 20.2557V18.2557ZM19.8707 17.5898C19.1866 17.1617 18.709 16.5667 18.4243 15.7669L16.5401 16.4376C16.9714 17.6492 17.7324 18.611 18.8097 19.2852L19.8707 17.5898ZM18.4266 15.7733C18.1441 14.9624 18.076 13.9447 18.2893 12.6806L16.3172 12.3478C16.0646 13.845 16.1158 15.2194 16.5379 16.4312L18.4266 15.7733ZM18.2893 12.6806C18.4955 11.459 18.905 10.4147 19.5039 9.52878L17.847 8.40872C17.0708 9.5569 16.5656 10.8762 16.3172 12.3478L18.2893 12.6806ZM19.5018 9.53194C20.1086 8.6416 20.86 7.95914 21.7609 7.46953L20.8059 5.71228C19.6158 6.35904 18.6286 7.26181 17.8491 8.40556L19.5018 9.53194ZM21.7609 7.46953C22.6483 6.98724 23.6468 6.73864 24.7777 6.73864V4.73864C23.3404 4.73864 22.0094 5.05821 20.8059 5.71228L21.7609 7.46953ZM24.7777 6.73864C25.5332 6.73864 26.1863 6.86016 26.7514 7.08525L27.4915 5.22725C26.6588 4.89552 25.7495 4.73864 24.7777 4.73864V6.73864ZM26.7605 7.08882C27.3139 7.30306 27.7573 7.62055 28.1102 8.04229L29.6441 6.75884C29.0651 6.06695 28.3381 5.55489 27.4824 5.22368L26.7605 7.08882ZM28.1134 8.04616C28.454 8.44905 28.7095 8.97864 28.8521 9.67286L30.8112 9.27032C30.613 8.30545 30.232 7.45436 29.6408 6.75498L28.1134 8.04616ZM28.8535 9.67929C28.9969 10.3547 29.0043 11.1959 28.8362 12.2252L30.8101 12.5475C31.0057 11.3496 31.0187 10.2476 30.8099 9.26389L28.8535 9.67929ZM28.8361 12.2261L28.6742 13.2232L30.6483 13.5438L30.8102 12.5467L28.8361 12.2261ZM29.6612 12.3835H18.6158V14.3835H29.6612V12.3835ZM19.6039 13.537L19.9534 11.287L17.977 10.9801L17.6276 13.2301L19.6039 13.537ZM18.9652 12.1335H26.6016V10.1335H18.9652V12.1335ZM27.5885 11.2944C27.6957 10.6372 27.6627 9.99035 27.434 9.38887L25.5646 10.0998C25.6427 10.3051 25.6779 10.5844 25.6146 10.9726L27.5885 11.2944ZM27.434 9.38887C27.2054 8.78768 26.8118 8.29921 26.2683 7.95408L25.1962 9.64251C25.3686 9.75193 25.4864 9.89414 25.5646 10.0998L27.434 9.38887ZM26.2777 7.96016C25.7244 7.60005 25.084 7.44886 24.4112 7.44886V9.44886C24.7839 9.44886 25.0242 9.53063 25.1868 9.63643L26.2777 7.96016ZM24.4112 7.44886C23.7057 7.44886 23.0373 7.62359 22.422 7.96877L23.4005 9.71305C23.717 9.5355 24.0485 9.44886 24.4112 9.44886V7.44886ZM22.422 7.96877C21.8346 8.29826 21.3361 8.73511 20.9338 9.27387L22.5364 10.4704C22.7705 10.1569 23.056 9.90628 23.4005 9.71305L22.422 7.96877ZM20.9325 9.27563C20.5326 9.81361 20.2662 10.4121 20.1465 11.0634L22.1135 11.4252C22.1755 11.0879 22.3125 10.7716 22.5377 10.4687L20.9325 9.27563ZM20.1457 11.0677L19.7451 13.3007L21.7137 13.6538L22.1143 11.4209L20.1457 11.0677ZM19.7428 13.3142C19.6132 14.0981 19.62 14.8528 19.8537 15.5207L21.7414 14.86C21.657 14.6188 21.6183 14.2315 21.716 13.6403L19.7428 13.3142ZM19.8574 15.5311C20.0998 16.1997 20.5374 16.7341 21.159 17.0843L22.1407 15.3418C21.9555 15.2375 21.8249 15.0901 21.7377 14.8495L19.8574 15.5311ZM21.1684 17.0895C21.7616 17.4154 22.4521 17.5455 23.1839 17.5455V15.5455C22.6771 15.5455 22.345 15.454 22.1313 15.3366L21.1684 17.0895ZM23.1839 17.5455C23.6823 17.5455 24.1645 17.4751 24.6245 17.3267L24.0105 15.4233C23.7659 15.5022 23.4925 15.5455 23.1839 15.5455V17.5455ZM24.6201 17.3281C25.0877 17.1797 25.5157 16.9563 25.8948 16.6546L24.6493 15.0897C24.4715 15.2312 24.2631 15.3431 24.0149 15.4219L24.6201 17.3281ZM25.9044 16.6468C26.2926 16.3299 26.6038 15.9414 26.8391 15.4935L25.0686 14.5633C24.9516 14.7859 24.8082 14.9599 24.6396 15.0975L25.9044 16.6468ZM25.8871 16.0262L29.2025 16.2478L29.3359 14.2522L26.0205 14.0306L25.8871 16.0262ZM28.3345 14.8946C28.0804 15.5628 27.697 16.143 27.1776 16.6436L28.5653 18.0837C29.2959 17.3797 29.8443 16.5509 30.2039 15.6054L28.3345 14.8946ZM27.181 16.6403C26.6608 17.1368 26.0247 17.5346 25.2572 17.8268L25.9687 19.6959C26.9625 19.3176 27.8321 18.7836 28.5619 18.087L27.181 16.6403ZM25.2605 17.8255C24.5147 18.1064 23.6565 18.2557 22.6726 18.2557V20.2557C23.8592 20.2557 24.9612 20.0754 25.9654 19.6972L25.2605 17.8255ZM43.5426 9.64205L43.6045 10.6401L44.5121 10.5838L44.5421 9.67505L43.5426 9.64205ZM40.2443 9.84659L39.246 9.90531L39.305 10.9068L40.3062 10.8447L40.2443 9.84659ZM40.0057 9.07102L39.1427 9.5762L39.15 9.58872L39.1577 9.60102L40.0057 9.07102ZM39.4006 8.51705L38.938 9.40366L38.9458 9.40765L39.4006 8.51705ZM36.8182 8.72159L36.313 7.85858L36.8182 8.72159ZM36.0256 9.76989L37.0084 9.95417L37.0121 9.93465L37.015 9.915L36.0256 9.76989ZM37.4062 10.9375L37.1883 11.9135L37.1957 11.9151L37.2032 11.9167L37.4062 10.9375ZM39.7074 11.4148L39.9157 10.4367L39.9105 10.4356L39.7074 11.4148ZM42.3665 12.7188L41.6221 13.3866L41.6256 13.3904L42.3665 12.7188ZM42.9545 15.1051L43.9404 15.2728L43.9417 15.2649L42.9545 15.1051ZM41.8551 17.2955L42.5786 17.9858L42.5818 17.9825L41.8551 17.2955ZM39.6051 18.7443L39.9562 19.6807L39.9614 19.6787L39.6051 18.7443ZM32.5227 18.1648L33.1403 17.3783L32.5227 18.1648ZM31.1847 15.2074L31.1318 14.2088L30.2103 14.2575L30.185 15.18L31.1847 15.2074ZM34.7301 15.0199L35.7287 14.9668L35.6756 13.9685L34.6773 14.0213L34.7301 15.0199ZM35.2926 16.2301L34.6742 17.016L34.6823 17.0223L35.2926 16.2301ZM36.7159 16.6392L36.7327 15.6393L36.7253 15.6392L36.7159 16.6392ZM38.4375 16.2216L38.961 17.0736L38.9639 17.0719L38.4375 16.2216ZM39.2472 15.1477L38.2588 14.9957L38.258 15.0007L39.2472 15.1477ZM38.9915 14.4318L38.3373 15.1882L38.3473 15.1967L38.9915 14.4318ZM37.8324 13.9801L38.0399 13.0019L38.0351 13.0009L37.8324 13.9801ZM35.6506 13.5284L35.8533 12.5492L35.8527 12.5491L35.6506 13.5284ZM32.983 12.1562L32.2093 12.7899L32.983 12.1562ZM32.429 9.64205L31.4428 9.47653L31.4427 9.47675L32.429 9.64205ZM33.4432 7.55398L32.7117 6.87216L32.7114 6.87243L33.4432 7.55398ZM35.5483 6.20739L35.208 5.26705L35.2061 5.26777L35.5483 6.20739ZM42.3068 6.78693L41.6753 7.56226L41.6778 7.56429L42.3068 6.78693ZM43.4807 8.64396L40.1824 8.84851L40.3062 10.8447L43.6045 10.6401L43.4807 8.64396ZM41.2426 9.78787C41.2165 9.34516 41.0918 8.92197 40.8537 8.54102L39.1577 9.60102C39.2037 9.67462 39.238 9.76848 39.246 9.90531L41.2426 9.78787ZM40.8687 8.56584C40.6254 8.15014 40.273 7.8397 39.8553 7.62644L38.9458 9.40765C39.0622 9.46711 39.1133 9.526 39.1427 9.5762L40.8687 8.56584ZM39.8631 7.63046C39.4179 7.39818 38.917 7.3125 38.4119 7.3125V9.3125C38.7023 9.3125 38.8605 9.36318 38.938 9.40363L39.8631 7.63046ZM38.4119 7.3125C37.6569 7.3125 36.9479 7.48694 36.313 7.85858L37.3234 9.58461C37.6203 9.41079 37.9737 9.3125 38.4119 9.3125V7.3125ZM36.313 7.85858C35.6578 8.24211 35.1536 8.82372 35.0362 9.62477L37.015 9.915C37.0225 9.86378 37.0467 9.74653 37.3234 9.58461L36.313 7.85858ZM35.0427 9.5856C34.932 10.1758 35.0996 10.7482 35.5422 11.1778L36.9351 9.74265C36.9445 9.75178 36.9764 9.78856 36.996 9.8521C37.0152 9.91432 37.0082 9.95538 37.0084 9.95417L35.0427 9.5856ZM35.5422 11.1778C35.954 11.5775 36.5946 11.7809 37.1883 11.9135L37.6242 9.96154C37.3653 9.90373 37.1797 9.84597 37.0538 9.79452C36.9184 9.73917 36.9031 9.71162 36.9351 9.74265L35.5422 11.1778ZM37.2032 11.9167L39.5043 12.3939L39.9105 10.4356L37.6093 9.95834L37.2032 11.9167ZM39.4991 12.3928C40.6235 12.6323 41.2756 13.0003 41.6221 13.3866L43.1108 12.0509C42.3665 11.2213 41.2458 10.72 39.9157 10.4367L39.4991 12.3928ZM41.6256 13.3904C41.9287 13.7247 42.0894 14.1916 41.9674 14.9453L43.9417 15.2649C44.1379 14.0527 43.9066 12.9287 43.1074 12.0471L41.6256 13.3904ZM41.9687 14.9375C41.8603 15.5746 41.5857 16.1248 41.1285 16.6084L42.5818 17.9825C43.3063 17.2161 43.7647 16.3061 43.9404 15.2728L41.9687 14.9375ZM41.1316 16.6051C40.6566 17.1029 40.038 17.5091 39.2489 17.8099L39.9614 19.6787C40.9905 19.2864 41.8718 18.7266 42.5786 17.9858L41.1316 16.6051ZM39.254 17.808C38.4718 18.1013 37.5843 18.2557 36.5795 18.2557V20.2557C37.7907 20.2557 38.9202 20.0692 39.9562 19.6806L39.254 17.808ZM36.5795 18.2557C34.9162 18.2557 33.8204 17.9124 33.1403 17.3783L31.9051 18.9513C33.0773 19.8717 34.6861 20.2557 36.5795 20.2557V18.2557ZM33.1403 17.3783C32.4794 16.8592 32.1583 16.1838 32.1843 15.2348L30.185 15.18C30.1429 16.7197 30.7138 18.0158 31.9051 18.9513L33.1403 17.3783ZM31.2375 16.206L34.7829 16.0185L34.6773 14.0213L31.1318 14.2088L31.2375 16.206ZM33.7315 15.073C33.7717 15.828 34.0536 16.5276 34.6742 17.016L35.911 15.4442C35.8384 15.3871 35.7454 15.2799 35.7287 14.9668L33.7315 15.073ZM34.6823 17.0223C35.2556 17.464 35.9671 17.6322 36.7065 17.6392L36.7253 15.6392C36.2601 15.6349 36.0228 15.5303 35.903 15.438L34.6823 17.0223ZM36.6991 17.6391C37.5233 17.6529 38.2944 17.4832 38.961 17.0736L37.914 15.3696C37.6375 15.5395 37.2608 15.6482 36.7327 15.6393L36.6991 17.6391ZM38.9639 17.0719C39.6059 16.6744 40.1177 16.0929 40.2363 15.2948L38.258 15.0007C38.2517 15.0435 38.2237 15.1779 37.9111 15.3713L38.9639 17.0719ZM40.2355 15.2998C40.3302 14.6842 40.1369 14.0891 39.6356 13.6669L38.3473 15.1967C38.3357 15.1869 38.2991 15.1493 38.2756 15.0835C38.2531 15.0205 38.2608 14.9826 38.2588 14.9957L40.2355 15.2998ZM39.6456 13.6755C39.2308 13.3167 38.6264 13.1263 38.0399 13.0019L37.6249 14.9583C37.8718 15.0107 38.0534 15.0646 38.1809 15.1143C38.3149 15.1665 38.3499 15.199 38.3373 15.1882L39.6456 13.6755ZM38.0351 13.0009L35.8533 12.5492L35.4478 14.5076L37.6297 14.9593L38.0351 13.0009ZM35.8527 12.5491C34.7338 12.3181 34.0954 11.9363 33.7566 11.5226L32.2093 12.7899C32.9501 13.6944 34.0901 14.2274 35.4484 14.5078L35.8527 12.5491ZM33.7566 11.5226C33.4378 11.1333 33.2815 10.6052 33.4152 9.80734L31.4427 9.47675C31.2355 10.713 31.4486 11.861 32.2093 12.7899L33.7566 11.5226ZM33.4152 9.80756C33.5205 9.18007 33.7743 8.66572 34.175 8.23553L32.7114 6.87243C32.0325 7.60132 31.6102 8.47902 31.4428 9.47653L33.4152 9.80756ZM34.1747 8.23579C34.5982 7.78138 35.1598 7.41317 35.8905 7.147L35.2061 5.26777C34.2209 5.6266 33.379 6.15612 32.7117 6.87216L34.1747 8.23579ZM35.8885 7.14772C36.6253 6.88114 37.4818 6.73864 38.4716 6.73864V4.73864C37.2909 4.73864 36.1986 4.90863 35.208 5.26705L35.8885 7.14772ZM38.4716 6.73864C40.0575 6.73864 41.0692 7.0686 41.6753 7.56226L42.9384 6.0116C41.8285 5.10754 40.2834 4.73864 38.4716 4.73864V6.73864ZM41.6778 7.56429C42.2748 8.04743 42.5736 8.687 42.5432 9.60904L44.5421 9.67505C44.5912 8.188 44.0661 6.92416 42.9359 6.00957L41.6778 7.56429ZM47.201 18.4034L46.6526 19.2396L46.6564 19.2421L47.201 18.4034ZM45.3516 16.017L44.4061 16.3427L44.4083 16.349L45.3516 16.017ZM45.1555 12.446L46.1425 12.6071L46.1428 12.605L45.1555 12.446ZM46.5021 8.92614L45.6744 8.36498V8.36498L46.5021 8.92614ZM49.1016 6.58239L49.5697 7.46607L49.5734 7.46408L49.1016 6.58239ZM55.9624 6.59943L55.4139 7.43564L55.4178 7.43812L55.9624 6.59943ZM57.8118 8.9858L56.8679 9.31614V9.31615L57.8118 8.9858ZM58.0163 12.5568L59.0028 12.7205L59.0033 12.7179L58.0163 12.5568ZM56.6527 16.0682L55.8272 15.5038L56.6527 16.0682ZM54.0533 18.4205L54.5234 19.3031L54.5271 19.3011L54.0533 18.4205ZM52.5021 15.9233L53.0943 16.7291L53.096 16.7279L52.5021 15.9233ZM53.6868 14.4915L52.8008 14.0278L52.7992 14.0309L53.6868 14.4915ZM54.3516 12.429L53.365 12.2658L53.3646 12.2681L54.3516 12.429ZM54.3771 10.4176L53.3934 10.5973L53.3937 10.599L54.3771 10.4176ZM53.6953 9.01989L52.9882 9.72702L52.9941 9.73281L53.6953 9.01989ZM50.6527 9.03693L51.2403 9.84611L51.2466 9.84151L50.6527 9.03693ZM48.8118 12.5398L47.8246 12.3801L47.8242 12.3827L48.8118 12.5398ZM48.7862 14.5511L47.8009 14.7217L47.8012 14.7233L48.7862 14.5511ZM49.4595 15.9403L48.7583 16.6533L48.7643 16.6591L49.4595 15.9403ZM50.5163 18.2557C49.3208 18.2557 48.4187 18.0018 47.7456 17.5647L46.6564 19.2421C47.7333 19.9414 49.0414 20.2557 50.5163 20.2557V18.2557ZM47.7494 17.5672C47.0637 17.1175 46.5824 16.5021 46.2948 15.6851L44.4083 16.349C44.8366 17.5661 45.5883 18.5416 46.6526 19.2396L47.7494 17.5672ZM46.297 15.6914C46.0113 14.8618 45.9404 13.8452 46.1425 12.6071L44.1686 12.285C43.9274 13.7628 43.9873 15.1268 44.4061 16.3427L46.297 15.6914ZM46.1428 12.605C46.3383 11.3911 46.7391 10.3586 47.3298 9.48729L45.6744 8.36498C44.9015 9.50502 44.4046 10.8191 44.1683 12.2871L46.1428 12.605ZM47.3298 9.48729C47.922 8.61387 48.6661 7.94468 49.5697 7.46606L48.6335 5.69872C47.4347 6.33373 46.4459 7.22704 45.6744 8.36498L47.3298 9.48729ZM49.5734 7.46408C50.4645 6.98721 51.4842 6.73864 52.6555 6.73864V4.73864C51.1905 4.73864 49.8409 5.05257 48.6297 5.70069L49.5734 7.46408ZM52.6555 6.73864C53.8427 6.73864 54.7408 6.99417 55.4139 7.43563L56.5108 5.76323C55.4339 5.05697 54.1275 4.73864 52.6555 4.73864V6.73864ZM55.4178 7.43812C56.0995 7.88081 56.5801 8.49371 56.8679 9.31614L58.7556 8.65545C58.3276 7.43243 57.5752 6.45441 56.507 5.76074L55.4178 7.43812ZM56.8679 9.31615C57.1578 10.1443 57.2312 11.1591 57.0294 12.3958L59.0033 12.7179C59.2447 11.2386 59.1817 9.87274 58.7556 8.65544L56.8679 9.31615ZM57.0298 12.3931C56.8294 13.6007 56.4237 14.6311 55.8272 15.5038L57.4782 16.6325C58.2567 15.4939 58.7601 14.1834 59.0028 12.7205L57.0298 12.3931ZM55.8272 15.5038C55.2275 16.3811 54.4803 17.0551 53.5795 17.5398L54.5271 19.3011C55.7172 18.6608 56.7029 17.7667 57.4782 16.6325L55.8272 15.5038ZM53.5832 17.5378C52.6976 18.0095 51.6829 18.2557 50.5163 18.2557V20.2557C51.9747 20.2557 53.3181 19.945 54.5234 19.3031L53.5832 17.5378ZM50.8743 17.4432C51.69 17.4432 52.4424 17.2082 53.0943 16.7291L51.9099 15.1175C51.6187 15.3316 51.2859 15.4432 50.8743 15.4432V17.4432ZM53.096 16.7279C53.7128 16.2726 54.2017 15.6704 54.5744 14.952L52.7992 14.0309C52.5469 14.5171 52.2461 14.8694 51.9083 15.1187L53.096 16.7279ZM54.5728 14.9552C54.9467 14.2407 55.1986 13.4488 55.3385 12.5898L53.3646 12.2681C53.2546 12.9433 53.0632 13.5264 52.8008 14.0278L54.5728 14.9552ZM55.3382 12.5922C55.4769 11.7535 55.4945 10.9626 55.3605 10.2362L53.3937 10.599C53.4756 11.043 53.4762 11.5931 53.365 12.2658L55.3382 12.5922ZM55.3608 10.2379C55.2247 9.49267 54.9214 8.82324 54.3966 8.30696L52.9941 9.73281C53.1624 9.89835 53.3136 10.1607 53.3934 10.5973L55.3608 10.2379ZM54.4024 8.31278C53.8315 7.7419 53.0841 7.50852 52.2891 7.50852V9.50852C52.6872 9.50852 52.8773 9.61606 52.9882 9.72699L54.4024 8.31278ZM52.2891 7.50852C51.4696 7.50852 50.7143 7.74854 50.0588 8.23236L51.2466 9.84151C51.5456 9.62077 51.8813 9.50852 52.2891 9.50852V7.50852ZM50.0651 8.22778C49.4423 8.68004 48.9514 9.28645 48.5787 10.0116L50.3574 10.9259C50.6097 10.4351 50.9085 10.087 51.2403 9.84608L50.0651 8.22778ZM48.5787 10.0116C48.2117 10.7254 47.964 11.5185 47.8246 12.3801L49.799 12.6995C49.9096 12.0156 50.0993 11.428 50.3574 10.9259L48.5787 10.0116ZM47.8242 12.3827C47.692 13.2137 47.6756 13.998 47.8009 14.7217L49.7716 14.3806C49.6923 13.9225 49.6929 13.3659 49.7994 12.6969L47.8242 12.3827ZM47.8012 14.7233C47.9312 15.4676 48.2326 16.1362 48.7583 16.6533L50.1608 15.2274C49.9932 15.0626 49.8458 14.8052 49.7713 14.379L47.8012 14.7233ZM48.7643 16.6591C49.3393 17.2153 50.0832 17.4432 50.8743 17.4432V15.4432C50.4722 15.4432 50.2729 15.3358 50.1547 15.2215L48.7643 16.6591Z" fill="#DE0D0D" mask="url(#path-1-outside-1_22_17)"/>
</svg>
