<svg width="250" height="46" viewBox="0 0 250 46" fill="none" xmlns="http://www.w3.org/2000/svg">
<path d="M0.963778 45L8.2081 1.36364H25.424C28.7195 1.36364 31.4254 1.99574 33.5419 3.25994C35.6726 4.50994 37.1641 6.25 38.0163 8.48011C38.8828 10.696 39.0817 13.2528 38.6129 16.1506C38.13 19.0625 37.0788 21.6264 35.4595 23.8423C33.8544 26.044 31.7663 27.7628 29.1953 28.9986C26.6243 30.2344 23.6555 30.8523 20.2891 30.8523H9.31605L10.5305 23.4588H20.0121C21.8018 23.4588 23.3288 23.1534 24.593 22.5426C25.8714 21.9176 26.8871 21.0582 27.6399 19.9645C28.3928 18.8565 28.8828 17.5852 29.1101 16.1506C29.3516 14.6875 29.2734 13.4162 28.8757 12.3366C28.478 11.2571 27.7464 10.419 26.6811 9.82244C25.63 9.21165 24.2166 8.90625 22.4411 8.90625H16.2195L10.1896 45H0.963778ZM39.8114 45L47.0558 1.36364H64.2717C67.5671 1.36364 70.2802 1.94602 72.4109 3.11079C74.5558 4.27557 76.0614 5.9304 76.9279 8.07528C77.8086 10.206 78.0146 12.7202 77.5458 15.6179C77.0629 18.5156 76.0188 21.0014 74.4137 23.0753C72.8228 25.1491 70.7489 26.7472 68.1921 27.8693C65.6495 28.9773 62.7021 29.5312 59.3498 29.5312H47.8228L49.1012 22.1165H59.1154C60.8768 22.1165 62.3825 21.875 63.6325 21.392C64.8825 20.9091 65.8697 20.1847 66.5941 19.2188C67.3327 18.2528 67.8157 17.0526 68.043 15.6179C68.2844 14.1548 68.1992 12.9332 67.7873 11.9531C67.3754 10.9588 66.6296 10.206 65.5501 9.6946C64.4705 9.16903 63.0501 8.90625 61.2887 8.90625H55.0671L49.0373 45H39.8114ZM66.658 25.142L74.2219 45H64.0373L56.7077 25.142H66.658ZM123.174 23.7784C122.379 28.4375 120.838 32.3935 118.551 35.6463C116.278 38.8991 113.501 41.3707 110.22 43.0611C106.953 44.7514 103.43 45.5966 99.6516 45.5966C95.6886 45.5966 92.2724 44.6946 89.4031 42.8906C86.5479 41.0866 84.4812 38.4801 83.2028 35.071C81.9244 31.6477 81.6829 27.5213 82.4783 22.6918C83.2454 18.0185 84.7724 14.0554 87.0593 10.8026C89.3462 7.53551 92.1374 5.04971 95.4329 3.34517C98.7283 1.62642 102.272 0.767044 106.065 0.767044C110 0.767044 113.395 1.67614 116.25 3.49432C119.119 5.3125 121.186 7.94034 122.45 11.3778C123.728 14.8011 123.97 18.9347 123.174 23.7784ZM113.991 22.6918C114.488 19.6946 114.467 17.1804 113.927 15.1491C113.402 13.1037 112.436 11.5554 111.029 10.5043C109.623 9.45313 107.848 8.92756 105.703 8.92756C103.373 8.92756 101.235 9.50994 99.2894 10.6747C97.3576 11.8395 95.7241 13.5298 94.3889 15.7457C93.0678 17.9474 92.1516 20.625 91.6403 23.7784C91.1289 26.7898 91.1431 29.304 91.6829 31.321C92.2369 33.3381 93.2241 34.8651 94.6445 35.902C96.0792 36.9247 97.8619 37.4361 99.9925 37.4361C102.308 37.4361 104.424 36.8679 106.342 35.7315C108.274 34.581 109.9 32.9119 111.221 30.7244C112.542 28.5227 113.466 25.8452 113.991 22.6918ZM126.472 45L133.716 1.36364H162.608L161.33 8.97017H141.663L139.959 19.3679H157.707L156.429 26.9744H138.68L135.697 45H126.472ZM178.039 1.36364L170.795 45H161.569L168.814 1.36364H178.039ZM178.386 45L185.63 1.36364H194.856L188.89 37.3935H207.597L206.319 45H178.386ZM212.429 45L219.673 1.36364H249.076L247.798 8.97017H227.62L225.916 19.3679H244.581L243.302 26.9744H224.637L222.933 37.3935H243.196L241.917 45H212.429Z" fill="#981616"/>
</svg>
