<svg width="107" height="31" viewBox="0 0 107 31" fill="none" xmlns="http://www.w3.org/2000/svg">
<path d="M19.2756 9.3608C19.3229 8.17708 18.9773 7.26326 18.2386 6.61932C17.5095 5.97538 16.4063 5.65341 14.929 5.65341C13.9252 5.65341 13.054 5.79545 12.3153 6.07955C11.5767 6.35417 10.9848 6.73769 10.5398 7.23011C10.1042 7.71307 9.83428 8.27178 9.73011 8.90625C9.62595 9.42708 9.65909 9.88163 9.82955 10.2699C10.0095 10.6581 10.2888 10.9943 10.6676 11.2784C11.0559 11.553 11.5152 11.7945 12.0455 12.0028C12.5758 12.2017 13.1392 12.3722 13.7358 12.5142L16.2358 13.1392C17.4574 13.4233 18.5559 13.8021 19.5312 14.2756C20.5161 14.7491 21.34 15.3314 22.0028 16.0227C22.6752 16.714 23.1487 17.5284 23.4233 18.4659C23.6979 19.4034 23.7358 20.4782 23.5369 21.6903C23.2339 23.4706 22.5284 25.0142 21.4205 26.321C20.3125 27.6184 18.8589 28.6269 17.0597 29.3466C15.2604 30.0568 13.1771 30.4119 10.8097 30.4119C8.46117 30.4119 6.47727 30.0521 4.85795 29.3324C3.23864 28.6127 2.05966 27.5473 1.32102 26.1364C0.591856 24.7159 0.374053 22.9593 0.667614 20.8665H6.61932C6.51515 21.8419 6.6572 22.6562 7.04545 23.3097C7.44318 23.9536 8.03504 24.4413 8.82102 24.7727C9.60701 25.0947 10.5303 25.2557 11.5909 25.2557C12.642 25.2557 13.5748 25.1042 14.3892 24.8011C15.2131 24.4981 15.8807 24.0767 16.392 23.5369C16.9034 22.9972 17.2159 22.3769 17.3295 21.6761C17.4432 21.0227 17.3438 20.4735 17.0312 20.0284C16.7188 19.5833 16.2169 19.2045 15.5256 18.892C14.8438 18.5701 13.9962 18.286 12.983 18.0398L9.94318 17.2443C7.5947 16.6477 5.81913 15.715 4.61648 14.446C3.41383 13.1771 2.98295 11.4678 3.32386 9.31818C3.62689 7.55682 4.3608 6.01799 5.52557 4.7017C6.69981 3.37595 8.17708 2.34848 9.95739 1.61932C11.7472 0.880681 13.7027 0.511363 15.8239 0.511363C17.983 0.511363 19.8059 0.885416 21.2926 1.63352C22.7794 2.37216 23.8636 3.40436 24.5455 4.73011C25.2273 6.05587 25.4356 7.59943 25.1705 9.3608H19.2756ZM30.6463 30H24.0554L38.9276 0.90909H46.8537L52.0526 30H45.4616L41.9247 7.55682H41.6974L30.6463 30ZM32.152 18.5653H47.7202L46.8963 23.3665H31.3281L32.152 18.5653ZM62.0064 0.90909L65.3871 23.0114H65.657L76.353 0.90909H83.1712L68.3132 30H60.3871L55.174 0.90909H62.0064ZM81.843 30L86.6726 0.90909H106.275L105.423 5.98011H91.9709L90.8345 12.9119H103.278L102.425 17.983H89.9822L88.8459 24.929H102.354L101.502 30H81.843Z" fill="#FFE9E9"/>
</svg>
